<svg width="26" height="27" viewBox="0 0 26 27" fill="none" xmlns="http://www.w3.org/2000/svg">
<path d="M9.68585 26.8122C10.8182 26.8122 11.7361 25.8943 11.7361 24.7619C11.7361 23.6296 10.8182 22.7117 9.68585 22.7117C8.55352 22.7117 7.63559 23.6296 7.63559 24.7619C7.63559 25.8943 8.55352 26.8122 9.68585 26.8122Z" fill="#623D2A"/>
<path d="M22.1423 26.8122C23.2746 26.8122 24.1926 25.8943 24.1926 24.7619C24.1926 23.6296 23.2746 22.7117 22.1423 22.7117C21.01 22.7117 20.092 23.6296 20.092 24.7619C20.092 25.8943 21.01 26.8122 22.1423 26.8122Z" fill="#623D2A"/>
<path d="M15.932 4.03168C15.8905 3.7297 15.8692 3.42528 15.8682 3.12046C15.8692 2.81563 15.8905 2.51121 15.932 2.20923H5.33959L5.93188 4.03168H15.932Z" fill="#623D2A"/>
<path d="M24.3265 12.1445H23.9438L23.3541 14.9663H9.68572L5.52141 1.78082C5.47636 1.6409 5.39814 1.51397 5.29342 1.41083C5.1887 1.30769 5.06058 1.23142 4.92 1.18852L1.18396 0.0403704C1.06909 0.00506943 0.94838 -0.00725895 0.828737 0.004089C0.709095 0.0154369 0.59286 0.050239 0.486667 0.106508C0.272202 0.220149 0.111665 0.414331 0.0403717 0.646337C-0.0309217 0.878343 -0.0071312 1.12917 0.10651 1.34363C0.22015 1.5581 0.414333 1.71863 0.646338 1.78993L3.91765 2.79228L8.10018 16.0051L6.60577 17.2261L6.48731 17.3446C6.11766 17.7706 5.90813 18.3121 5.89483 18.876C5.88152 19.4399 6.06526 19.9907 6.41441 20.4337C6.66277 20.7357 6.97838 20.9754 7.33597 21.1336C7.69357 21.2919 8.08323 21.3642 8.47379 21.3449H23.6822C23.9239 21.3449 24.1556 21.2489 24.3265 21.078C24.4974 20.9071 24.5934 20.6753 24.5934 20.4337C24.5934 20.192 24.4974 19.9602 24.3265 19.7893C24.1556 19.6184 23.9239 19.5224 23.6822 19.5224H8.32799C8.22306 19.5188 8.12082 19.4883 8.03116 19.4336C7.9415 19.379 7.86745 19.3022 7.81615 19.2106C7.76485 19.119 7.73804 19.0157 7.73831 18.9107C7.73858 18.8057 7.76593 18.7025 7.8177 18.6112L10.0138 16.7887H24.0831C24.2938 16.7939 24.4997 16.7259 24.6658 16.5963C24.832 16.4667 24.9481 16.2835 24.9943 16.078L25.8756 11.9714C25.3675 12.0879 24.8478 12.146 24.3265 12.1445Z" fill="#623D2A"/>
</svg>
