<svg width="10" height="21" viewBox="0 0 10 21" fill="none" xmlns="http://www.w3.org/2000/svg">
<path d="M2.01913 4.00357C2.01913 4.52427 2.03629 7.07181 2.03629 7.07181H0V10.3357L2.01913 10.3297L2.03629 20.6715H6.10887V10.3357L8.71715 10.3297C8.71715 10.3297 8.91416 8.89639 9.03603 7.07181C8.68609 7.07181 6.10887 7.07181 6.10887 7.07181C6.10887 7.07181 6.04263 4.81161 6.04263 4.45698C6.04263 4.10143 6.47962 3.623 6.91162 3.623H9.09544C9.09544 3.14919 9.09544 1.51201 9.09544 0C7.97044 0 6.69068 0 6.12622 0C1.92002 0 2.01913 3.48336 2.01913 4.00357Z" fill="#AF6900"/>
</svg>
