<svg width="19" height="19" viewBox="0 0 19 19" fill="none" xmlns="http://www.w3.org/2000/svg">
<path d="M3.93514 18.0618H0.0646362V5.16016H3.93514V18.0618ZM18.127 18.0618H14.2565V11.1698C14.2565 9.37385 13.6166 8.47976 12.3483 8.47976C11.3433 8.47976 10.7059 8.98035 10.386 9.98281V18.0618H6.51548C6.51548 18.0618 6.56709 6.45032 6.51548 5.16016H9.5706L9.8067 7.74049H9.88669C10.6801 6.45032 11.9484 5.57559 13.6875 5.57559C15.0099 5.57559 16.0795 5.94329 16.8962 6.86705C17.718 7.7921 18.127 9.03324 18.127 10.7763V18.0618Z" fill="#AF6900"/>
<path d="M1.99976 3.87051C3.1042 3.87051 3.99952 3.00406 3.99952 1.93525C3.99952 0.866442 3.1042 0 1.99976 0C0.895324 0 0 0.866442 0 1.93525C0 3.00406 0.895324 3.87051 1.99976 3.87051Z" fill="#AF6900"/>
</svg>
