<svg width="84" height="87" viewBox="0 0 84 87" fill="none" xmlns="http://www.w3.org/2000/svg">
<path d="M34.0585 85.0003L34.051 86.4714C34.051 86.7253 33.8494 86.9269 33.5955 86.9269H31.1238C30.8699 86.9269 30.6683 86.7253 30.6683 86.4714L30.6758 85.0003C30.6907 75.3451 30.7056 64.8535 27.308 57.5504C24.7243 55.7956 13.9415 49.3662 1.26198 54.3694C1.00809 54.459 0.716863 54.3246 0.634722 54.0557C0.410703 53.2567 0.209085 52.4503 0.0298693 51.6288C-0.022402 51.4048 0.104543 51.1659 0.321095 51.0837C9.11013 47.7384 17.018 49.2094 22.4617 51.2854C21.2445 50.3669 19.8481 49.6201 18.2427 49.09C6.68325 45.304 1.9415 38.8747 0.0298693 33.7222C0 33.6401 -0.00746732 33.543 0.00746732 33.4534C0.350964 31.833 0.791536 30.2499 1.31425 28.7116C1.47853 28.2412 2.16552 28.3233 2.21779 28.8087C2.64343 32.6096 4.9359 39.7409 15.5619 44.4453C14.6808 38.2698 15.5992 32.9605 16.4206 28.1964C17.5781 21.4982 18.5264 16.0769 14.636 9.99106C14.509 9.78944 14.5463 9.52808 14.7256 9.37127C15.3677 8.84856 16.0174 8.34078 16.6895 7.8554C16.906 7.69859 17.2196 7.75833 17.3615 7.98235C22.0958 15.2555 20.9533 21.8342 19.7511 28.7714C18.8401 34.006 17.9066 39.4123 19.2358 45.8641C19.2508 45.8715 19.2732 45.879 19.2956 45.879C34.1033 50.7552 34.0809 68.9456 34.0585 85.0003Z" fill="#482817"/>
<path d="M83.2406 51.745C83.0614 52.5515 82.8597 53.3579 82.6357 54.1569C82.561 54.4183 82.2698 54.5602 82.0159 54.4631C68.4926 49.4003 56.6644 55.8072 53.8044 57.5695C52.647 62.9534 52.6544 68.6734 52.6619 72.6908V86.4904C52.6619 86.7443 52.4603 86.9459 52.2064 86.9459H49.7347C49.4808 86.9459 49.2792 86.7443 49.2792 86.4904V72.6983C49.2643 66.0001 49.2493 54.9559 54.2226 47.3169C51.4148 44.0686 48.7789 38.9535 48.9208 33.226C49.0328 28.3947 51.161 23.9665 55.0514 20.427C61.0552 14.9684 61.9886 10.0773 61.6525 5.57454C61.6301 5.20117 62.0259 4.95475 62.347 5.13396C63.2057 5.61934 64.0496 6.12712 64.871 6.67223C65.0054 6.76184 65.0875 6.90372 65.0875 7.068C65.0875 11.7201 63.594 17.2385 57.329 22.9286C54.0807 25.8707 52.3931 29.3654 52.296 33.3007C52.1914 37.796 54.1554 41.8508 56.3507 44.5988C57.6202 43.2696 59.1062 42.1047 60.8685 41.1862C65.1398 38.9535 69.1945 38.0275 72.7639 37.221C78.1031 35.9964 80.963 35.2049 82.0906 32.0761C82.2474 31.6355 82.8747 31.6579 82.9867 32.1059C83.2779 33.2783 83.5243 34.4656 83.7185 35.6678C83.7409 35.8097 83.7035 35.9516 83.6065 36.0561C81.2468 38.7519 77.4534 39.6106 73.5181 40.5067C70.1429 41.2758 66.3196 42.1495 62.4291 44.1731C58.8598 46.04 56.5897 49.2434 55.156 52.9622C60.5997 50.3038 71.0539 46.824 82.9419 51.1924C83.1659 51.282 83.2928 51.521 83.2406 51.745Z" fill="#482817"/>
<path d="M52.6236 1.16011C52.9671 1.24972 53.0866 1.67536 52.8327 1.92924C51.6379 3.13895 49.6442 6.36483 48.9945 14.5938C48.3598 22.7108 44.5664 29.0356 41.5122 34.1209C39.3094 37.7873 37.3903 40.9833 37.2036 43.8284C40.2801 48.8763 43.3268 55.3803 43.3268 65.9018V86.5266C43.3268 86.7804 43.1252 86.9821 42.8713 86.9821H40.3996C40.1457 86.9821 39.9441 86.7804 39.9441 86.5266V65.8943C39.9441 54.1856 35.979 48.0698 32.4768 42.671C28.3772 36.3461 24.4942 30.3723 29.1837 17.9616C32.7157 8.62743 33.6268 3.34804 33.8358 0.786744C33.8508 0.577659 34.0076 0.40591 34.2167 0.368574C35.0455 0.219227 35.8893 0.09975 36.7332 0.00267481C37.0169 -0.0271945 37.2633 0.196825 37.2484 0.488051C37.0991 3.34804 36.1731 9.03067 32.3424 19.1638C28.4743 29.4015 30.931 34.0313 34.6722 39.8558C35.5533 37.4662 37.0169 35.0319 38.6075 32.381C41.6243 27.3555 45.0443 21.6579 45.6193 14.3325C46.1868 7.02196 47.8147 2.9672 49.4127 0.719538C49.5172 0.570191 49.7039 0.502985 49.8756 0.540322C50.8165 0.712071 51.7275 0.921156 52.6236 1.16011Z" fill="#482817"/>
<path d="M58.3334 39.5497C61.9999 38.7507 64.3222 35.129 63.5232 31.4626L63.3664 30.7383C63.3141 30.5068 63.0826 30.3574 62.8511 30.4022L62.1268 30.559C58.4603 31.358 56.138 34.9797 56.937 38.6461L57.0938 39.3779C57.1461 39.6094 57.3776 39.7588 57.6091 39.714L58.3334 39.5497Z" fill="#482817"/>
<path d="M56.7715 57.9164L56.1293 58.2823C55.9202 58.4018 55.853 58.6706 55.9725 58.8797L56.3384 59.5219C58.2127 62.7702 62.372 63.8828 65.6203 62.0085L66.2625 61.6426C66.4715 61.5231 66.5387 61.2543 66.4193 61.0452L66.0534 60.403C64.1791 57.1548 60.0272 56.0421 56.7715 57.9164Z" fill="#482817"/>
<path d="M45.1383 45.0772L44.4438 44.8233C44.2198 44.7412 43.9659 44.8607 43.8837 45.0847L43.6299 45.7792C42.3529 49.3112 44.175 53.2017 47.707 54.4786L48.4015 54.7325C48.6255 54.8146 48.8794 54.6952 48.9615 54.4711L49.2154 53.7767C50.4923 50.2521 48.6628 46.3542 45.1383 45.0772Z" fill="#482817"/>
<path d="M47.7893 37.53L47.8938 36.7982C47.9311 36.5592 47.7594 36.3427 47.5204 36.3054L46.7886 36.2008C43.0699 35.6706 39.6349 38.2543 39.1048 41.9731L39.0002 42.7048C38.9629 42.9438 39.1346 43.1604 39.3736 43.1977L40.1054 43.3022C43.8241 43.825 47.2591 41.2413 47.7893 37.53Z" fill="#482817"/>
<path d="M42.0655 18.6601L42.1701 17.9283C42.2074 17.6893 42.0431 17.4653 41.8042 17.4354L41.0724 17.3309C37.3611 16.7783 33.9037 19.3471 33.3586 23.0583L33.2541 23.7901C33.2167 24.0291 33.381 24.2531 33.62 24.283L34.3518 24.3875C38.063 24.9401 41.5129 22.3713 42.0655 18.6601Z" fill="#482817"/>
<path d="M25.3792 34.3098L24.6847 34.5637C21.1676 35.863 19.368 39.7684 20.6673 43.293L20.9212 43.9874C21.0033 44.2114 21.2572 44.3309 21.4812 44.2488L22.1757 43.9949C25.6928 42.6956 27.4924 38.7902 26.1931 35.2656L25.9392 34.5711C25.8571 34.3396 25.6107 34.2276 25.3792 34.3098Z" fill="#482817"/>
<path d="M15.5322 26.535C16.0624 22.8163 13.4787 19.3813 9.75998 18.8511L9.02818 18.7466C8.78923 18.7092 8.57268 18.881 8.53534 19.1199L8.4308 19.8517C7.90062 23.5705 10.4843 27.0054 14.1956 27.5356L14.9274 27.6401C15.1663 27.6775 15.3829 27.5057 15.4202 27.2668L15.5322 26.535Z" fill="#482817"/>
<path d="M10.6508 38.4898C13.3017 35.8389 13.3017 31.5302 10.6508 28.8793L10.1281 28.3566C9.95634 28.1848 9.68005 28.1848 9.51577 28.3566L8.99306 28.8793C6.34216 31.5302 6.34216 35.8389 8.99306 38.4898L9.51577 39.0125C9.68752 39.1842 9.96381 39.1842 10.1281 39.0125L10.6508 38.4898Z" fill="#482817"/>
<path d="M24.0438 6.81123L23.3494 6.5648C23.1253 6.48266 22.8715 6.60214 22.7893 6.82616L22.5429 7.52062C21.2809 11.0527 23.1179 14.9431 26.6574 16.2051L27.3518 16.4515C27.5759 16.5337 27.8298 16.4142 27.9119 16.1902L28.1583 15.4957C29.4203 11.9637 27.5833 8.0732 24.0438 6.81123Z" fill="#482817"/>
<path d="M43.6483 9.77406L44.3652 9.95328C44.5967 10.013 44.8356 9.87114 44.8954 9.63965L45.0746 8.92279C45.9931 5.2862 43.7902 1.58988 40.1536 0.671395L39.4368 0.49218C39.2053 0.432441 38.9663 0.57432 38.9066 0.805807L38.7274 1.52267C37.8014 5.15926 40.0118 8.85558 43.6483 9.77406Z" fill="#482817"/>
<path d="M81.2001 42.6971C78.1534 40.5017 73.9045 41.1961 71.7166 44.2428L71.2835 44.8402C71.1416 45.0343 71.1864 45.3106 71.3806 45.445L71.9779 45.8781C75.0246 48.0735 79.2735 47.3791 81.4614 44.3324L81.8946 43.735C82.0364 43.5409 81.9916 43.2646 81.7975 43.1302L81.2001 42.6971Z" fill="#482817"/>
<path d="M15.3289 60.4102L14.963 61.0524C14.8435 61.2615 14.9107 61.5303 15.1198 61.6498L15.762 62.0157C19.0103 63.89 23.1695 62.7774 25.0438 59.5291L25.4097 58.8869C25.5292 58.6778 25.462 58.409 25.2529 58.2895L24.6107 57.9162C21.3625 56.0419 17.2106 57.1545 15.3289 60.4102Z" fill="#482817"/>
<path d="M71.0978 54.1439L70.3735 54.2783C70.1345 54.3231 69.9777 54.5472 70.0225 54.7861L70.1569 55.5104C70.8215 59.2068 74.3536 61.6561 78.0499 60.9915L78.7742 60.8571C79.0132 60.8122 79.17 60.5882 79.1252 60.3493L78.9908 59.6249C78.3262 55.9361 74.7941 53.4793 71.0978 54.1439Z" fill="#482817"/>
<path d="M4.55355 59.6249L4.41914 60.3493C4.37433 60.5882 4.53115 60.8122 4.7701 60.8571L5.49443 60.9915C9.19076 61.6561 12.7228 59.1993 13.3874 55.5104L13.5218 54.7861C13.5666 54.5472 13.4098 54.3231 13.1708 54.2783L12.4465 54.1439C8.75019 53.4793 5.21814 55.9361 4.55355 59.6249Z" fill="#482817"/>
<path d="M57.8675 24.5797L57.3298 25.08C57.1506 25.2443 57.1431 25.5206 57.3074 25.6924L57.8077 26.23C60.3616 28.978 64.6627 29.1348 67.4107 26.581L67.9484 26.0807C68.1276 25.9164 68.135 25.6401 67.9708 25.4683L67.4705 24.9307C64.9166 22.1902 60.6155 22.0259 57.8675 24.5797Z" fill="#482817"/>
<path d="M72.9231 15.6979L73.1696 15.0034C73.2517 14.7794 73.1322 14.5255 72.9082 14.4434L72.2137 14.1969C68.6817 12.935 64.7912 14.7719 63.5292 18.3114L63.2828 19.0059C63.2007 19.2299 63.3202 19.4838 63.5442 19.566L64.2386 19.8124C67.7707 21.0669 71.6612 19.2299 72.9231 15.6979Z" fill="#482817"/>
<path d="M59.3945 7.56641V6.82715C59.3945 6.58819 59.2004 6.39404 58.9614 6.39404H58.2221C54.4661 6.39404 51.4269 9.43324 51.4269 13.1893V13.9286C51.4269 14.1675 51.621 14.3617 51.86 14.3617H52.5992C56.3553 14.3617 59.3945 11.315 59.3945 7.56641Z" fill="#482817"/>
<path d="M70.9942 33.4677L71.0987 34.1995C71.1361 34.4384 71.3526 34.6027 71.5916 34.5654L72.3234 34.4608C76.0346 33.9232 78.6183 30.4808 78.0807 26.7695L77.9761 26.0377C77.9388 25.7987 77.7223 25.6345 77.4833 25.6718L76.7515 25.7763C73.0402 26.3065 70.464 29.7564 70.9942 33.4677Z" fill="#482817"/>
</svg>
