<svg width="424" height="90" viewBox="0 0 424 90" fill="none" xmlns="http://www.w3.org/2000/svg">
<path d="M34.0585 85.0003L34.051 86.4714C34.051 86.7253 33.8494 86.9269 33.5955 86.9269H31.1238C30.8699 86.9269 30.6683 86.7253 30.6683 86.4714L30.6758 85.0003C30.6907 75.3451 30.7056 64.8535 27.308 57.5504C24.7243 55.7956 13.9415 49.3662 1.26198 54.3694C1.00809 54.459 0.716863 54.3246 0.634722 54.0557C0.410703 53.2567 0.209085 52.4503 0.0298693 51.6288C-0.022402 51.4048 0.104543 51.1659 0.321095 51.0837C9.11013 47.7384 17.018 49.2094 22.4617 51.2854C21.2445 50.3669 19.8481 49.6201 18.2427 49.09C6.68325 45.304 1.9415 38.8747 0.0298693 33.7222C0 33.6401 -0.00746732 33.543 0.00746732 33.4534C0.350964 31.833 0.791536 30.2499 1.31425 28.7116C1.47853 28.2412 2.16552 28.3233 2.21779 28.8087C2.64343 32.6096 4.9359 39.7409 15.5619 44.4453C14.6808 38.2698 15.5992 32.9605 16.4206 28.1964C17.5781 21.4982 18.5264 16.0769 14.636 9.99106C14.509 9.78944 14.5463 9.52808 14.7256 9.37127C15.3677 8.84856 16.0174 8.34078 16.6895 7.8554C16.906 7.69859 17.2196 7.75833 17.3615 7.98235C22.0958 15.2555 20.9533 21.8342 19.7511 28.7714C18.8401 34.006 17.9066 39.4123 19.2358 45.8641C19.2508 45.8715 19.2732 45.879 19.2956 45.879C34.1033 50.7552 34.0809 68.9456 34.0585 85.0003Z" fill="#482817"/>
<path d="M83.2406 51.745C83.0614 52.5515 82.8597 53.3579 82.6357 54.1569C82.561 54.4183 82.2698 54.5602 82.0159 54.4631C68.4926 49.4003 56.6644 55.8072 53.8044 57.5695C52.647 62.9534 52.6544 68.6734 52.6619 72.6908V86.4904C52.6619 86.7443 52.4603 86.9459 52.2064 86.9459H49.7347C49.4808 86.9459 49.2792 86.7443 49.2792 86.4904V72.6983C49.2643 66.0001 49.2493 54.9559 54.2226 47.3169C51.4148 44.0686 48.7789 38.9535 48.9208 33.226C49.0328 28.3947 51.161 23.9665 55.0514 20.427C61.0552 14.9684 61.9886 10.0773 61.6525 5.57454C61.6301 5.20117 62.0259 4.95475 62.347 5.13396C63.2057 5.61934 64.0496 6.12712 64.871 6.67223C65.0054 6.76184 65.0875 6.90372 65.0875 7.068C65.0875 11.7201 63.594 17.2385 57.329 22.9286C54.0807 25.8707 52.3931 29.3654 52.296 33.3007C52.1914 37.796 54.1554 41.8508 56.3507 44.5988C57.6202 43.2696 59.1062 42.1047 60.8685 41.1862C65.1398 38.9535 69.1945 38.0275 72.7639 37.221C78.1031 35.9964 80.963 35.2049 82.0906 32.0761C82.2474 31.6355 82.8747 31.6579 82.9867 32.1059C83.2779 33.2783 83.5243 34.4656 83.7185 35.6678C83.7409 35.8097 83.7035 35.9516 83.6065 36.0561C81.2468 38.7519 77.4534 39.6106 73.5181 40.5067C70.1429 41.2758 66.3196 42.1495 62.4291 44.1731C58.8598 46.04 56.5897 49.2434 55.156 52.9622C60.5997 50.3038 71.0539 46.824 82.9419 51.1924C83.1659 51.282 83.2928 51.521 83.2406 51.745Z" fill="#482817"/>
<path d="M52.6236 1.16011C52.9671 1.24972 53.0866 1.67536 52.8327 1.92924C51.6379 3.13895 49.6442 6.36483 48.9945 14.5938C48.3598 22.7108 44.5664 29.0356 41.5122 34.1209C39.3094 37.7873 37.3903 40.9833 37.2036 43.8284C40.2801 48.8763 43.3268 55.3803 43.3268 65.9018V86.5266C43.3268 86.7804 43.1252 86.9821 42.8713 86.9821H40.3996C40.1457 86.9821 39.9441 86.7804 39.9441 86.5266V65.8943C39.9441 54.1856 35.979 48.0698 32.4768 42.671C28.3772 36.3461 24.4942 30.3723 29.1837 17.9616C32.7157 8.62743 33.6268 3.34804 33.8358 0.786744C33.8508 0.577659 34.0076 0.40591 34.2167 0.368574C35.0455 0.219227 35.8893 0.09975 36.7332 0.00267481C37.0169 -0.0271945 37.2633 0.196825 37.2484 0.488051C37.0991 3.34804 36.1731 9.03067 32.3424 19.1638C28.4743 29.4015 30.931 34.0313 34.6722 39.8558C35.5533 37.4662 37.0169 35.0319 38.6075 32.381C41.6243 27.3555 45.0443 21.6579 45.6193 14.3325C46.1868 7.02196 47.8147 2.9672 49.4127 0.719538C49.5172 0.570191 49.7039 0.502985 49.8756 0.540322C50.8165 0.712071 51.7275 0.921156 52.6236 1.16011Z" fill="#482817"/>
<path d="M58.3334 39.5497C61.9999 38.7507 64.3222 35.129 63.5232 31.4626L63.3664 30.7383C63.3141 30.5068 63.0826 30.3574 62.8511 30.4022L62.1268 30.559C58.4603 31.358 56.138 34.9797 56.937 38.6461L57.0938 39.3779C57.1461 39.6094 57.3776 39.7588 57.6091 39.714L58.3334 39.5497Z" fill="#482817"/>
<path d="M56.7715 57.9164L56.1293 58.2823C55.9202 58.4018 55.853 58.6706 55.9725 58.8797L56.3384 59.5219C58.2127 62.7702 62.372 63.8828 65.6203 62.0085L66.2625 61.6426C66.4715 61.5231 66.5387 61.2543 66.4193 61.0452L66.0534 60.403C64.1791 57.1548 60.0272 56.0421 56.7715 57.9164Z" fill="#482817"/>
<path d="M45.1383 45.0772L44.4438 44.8233C44.2198 44.7412 43.9659 44.8607 43.8837 45.0847L43.6299 45.7792C42.3529 49.3112 44.175 53.2017 47.707 54.4786L48.4015 54.7325C48.6255 54.8146 48.8794 54.6952 48.9615 54.4711L49.2154 53.7767C50.4923 50.2521 48.6628 46.3542 45.1383 45.0772Z" fill="#482817"/>
<path d="M47.7893 37.53L47.8938 36.7982C47.9311 36.5592 47.7594 36.3427 47.5204 36.3054L46.7886 36.2008C43.0699 35.6706 39.6349 38.2543 39.1048 41.9731L39.0002 42.7048C38.9629 42.9438 39.1346 43.1604 39.3736 43.1977L40.1054 43.3022C43.8241 43.825 47.2591 41.2413 47.7893 37.53Z" fill="#482817"/>
<path d="M42.0655 18.6601L42.1701 17.9283C42.2074 17.6893 42.0431 17.4653 41.8042 17.4354L41.0724 17.3309C37.3611 16.7783 33.9037 19.3471 33.3586 23.0583L33.2541 23.7901C33.2167 24.0291 33.381 24.2531 33.62 24.283L34.3518 24.3875C38.063 24.9401 41.5129 22.3713 42.0655 18.6601Z" fill="#482817"/>
<path d="M25.3792 34.3098L24.6847 34.5637C21.1676 35.863 19.368 39.7684 20.6673 43.293L20.9212 43.9874C21.0033 44.2114 21.2572 44.3309 21.4812 44.2488L22.1757 43.9949C25.6928 42.6956 27.4924 38.7902 26.1931 35.2656L25.9392 34.5711C25.8571 34.3396 25.6107 34.2276 25.3792 34.3098Z" fill="#482817"/>
<path d="M15.5322 26.535C16.0624 22.8163 13.4787 19.3813 9.75998 18.8511L9.02818 18.7466C8.78923 18.7092 8.57268 18.881 8.53534 19.1199L8.4308 19.8517C7.90062 23.5705 10.4843 27.0054 14.1956 27.5356L14.9274 27.6401C15.1663 27.6775 15.3829 27.5057 15.4202 27.2668L15.5322 26.535Z" fill="#482817"/>
<path d="M10.6508 38.4898C13.3017 35.8389 13.3017 31.5302 10.6508 28.8793L10.1281 28.3566C9.95634 28.1848 9.68005 28.1848 9.51577 28.3566L8.99306 28.8793C6.34216 31.5302 6.34216 35.8389 8.99306 38.4898L9.51577 39.0125C9.68752 39.1842 9.96381 39.1842 10.1281 39.0125L10.6508 38.4898Z" fill="#482817"/>
<path d="M24.0438 6.81123L23.3494 6.5648C23.1253 6.48266 22.8715 6.60214 22.7893 6.82616L22.5429 7.52062C21.2809 11.0527 23.1179 14.9431 26.6574 16.2051L27.3518 16.4515C27.5759 16.5337 27.8298 16.4142 27.9119 16.1902L28.1583 15.4957C29.4203 11.9637 27.5833 8.0732 24.0438 6.81123Z" fill="#482817"/>
<path d="M43.6483 9.77406L44.3652 9.95328C44.5967 10.013 44.8356 9.87114 44.8954 9.63965L45.0746 8.92279C45.9931 5.2862 43.7902 1.58988 40.1536 0.671395L39.4368 0.49218C39.2053 0.432441 38.9663 0.57432 38.9066 0.805807L38.7274 1.52267C37.8014 5.15926 40.0118 8.85558 43.6483 9.77406Z" fill="#482817"/>
<path d="M81.2001 42.6971C78.1534 40.5017 73.9045 41.1961 71.7166 44.2428L71.2835 44.8402C71.1416 45.0343 71.1864 45.3106 71.3806 45.445L71.9779 45.8781C75.0246 48.0735 79.2735 47.3791 81.4614 44.3324L81.8946 43.735C82.0364 43.5409 81.9916 43.2646 81.7975 43.1302L81.2001 42.6971Z" fill="#482817"/>
<path d="M15.3289 60.4102L14.963 61.0524C14.8435 61.2615 14.9107 61.5303 15.1198 61.6498L15.762 62.0157C19.0103 63.89 23.1695 62.7774 25.0438 59.5291L25.4097 58.8869C25.5292 58.6778 25.462 58.409 25.2529 58.2895L24.6107 57.9162C21.3625 56.0419 17.2106 57.1545 15.3289 60.4102Z" fill="#482817"/>
<path d="M71.0978 54.1439L70.3735 54.2783C70.1345 54.3231 69.9777 54.5472 70.0225 54.7861L70.1569 55.5104C70.8215 59.2068 74.3536 61.6561 78.0499 60.9915L78.7742 60.8571C79.0132 60.8122 79.17 60.5882 79.1252 60.3493L78.9908 59.6249C78.3262 55.9361 74.7941 53.4793 71.0978 54.1439Z" fill="#482817"/>
<path d="M4.55355 59.6249L4.41914 60.3493C4.37433 60.5882 4.53115 60.8122 4.7701 60.8571L5.49443 60.9915C9.19076 61.6561 12.7228 59.1993 13.3874 55.5104L13.5218 54.7861C13.5666 54.5472 13.4098 54.3231 13.1708 54.2783L12.4465 54.1439C8.75019 53.4793 5.21814 55.9361 4.55355 59.6249Z" fill="#482817"/>
<path d="M57.8675 24.5797L57.3298 25.08C57.1506 25.2443 57.1431 25.5206 57.3074 25.6924L57.8077 26.23C60.3616 28.978 64.6627 29.1348 67.4107 26.581L67.9484 26.0807C68.1276 25.9164 68.135 25.6401 67.9708 25.4683L67.4705 24.9307C64.9166 22.1902 60.6155 22.0259 57.8675 24.5797Z" fill="#482817"/>
<path d="M72.9231 15.6979L73.1696 15.0034C73.2517 14.7794 73.1322 14.5255 72.9082 14.4434L72.2137 14.1969C68.6817 12.935 64.7912 14.7719 63.5292 18.3114L63.2828 19.0059C63.2007 19.2299 63.3202 19.4838 63.5442 19.566L64.2386 19.8124C67.7707 21.0669 71.6612 19.2299 72.9231 15.6979Z" fill="#482817"/>
<path d="M59.3945 7.56641V6.82715C59.3945 6.58819 59.2004 6.39404 58.9614 6.39404H58.2221C54.4661 6.39404 51.4269 9.43324 51.4269 13.1893V13.9286C51.4269 14.1675 51.621 14.3617 51.86 14.3617H52.5992C56.3553 14.3617 59.3945 11.315 59.3945 7.56641Z" fill="#482817"/>
<path d="M70.9942 33.4677L71.0987 34.1995C71.1361 34.4384 71.3526 34.6027 71.5916 34.5654L72.3234 34.4608C76.0346 33.9232 78.6183 30.4808 78.0807 26.7695L77.9761 26.0377C77.9388 25.7987 77.7223 25.6345 77.4833 25.6718L76.7515 25.7763C73.0402 26.3065 70.464 29.7564 70.9942 33.4677Z" fill="#482817"/>
<path d="M133.401 34.238L122.415 69.2261H122.087L109.474 29.4877C107.716 24.0277 105.958 23.3069 100.957 22.7937H119.488C115.197 23.1868 113.832 25.3272 115.197 29.9464L124.566 60.7739L133.018 33.6592C136.207 23.58 133.674 23.1868 129.251 22.7937H143.109C137.758 23.2414 136.458 24.4754 133.401 34.238Z" fill="#482817"/>
<path fill-rule="evenodd" clip-rule="evenodd" d="M100.686 22.7818C100.694 22.6366 100.813 22.5227 100.959 22.5227H119.49C119.636 22.5227 119.756 22.6375 119.763 22.7832C119.77 22.929 119.66 23.0543 119.515 23.0676C117.399 23.2615 116.095 23.8794 115.456 24.9292C114.812 25.9882 114.784 27.58 115.46 29.8701C115.46 29.8697 115.46 29.8704 115.46 29.8701L124.571 59.848L132.76 33.5789C133.555 31.0666 133.988 29.173 134.127 27.7402C134.266 26.3045 134.107 25.3633 133.753 24.7295C133.404 24.1064 132.843 23.7394 132.075 23.5028C131.298 23.2632 130.34 23.1665 129.229 23.0676C129.083 23.0547 128.974 22.9295 128.98 22.7836C128.987 22.6377 129.107 22.5227 129.253 22.5227H143.111C143.257 22.5227 143.377 22.6381 143.383 22.7843C143.389 22.9305 143.279 23.0556 143.133 23.0678C140.473 23.2904 138.905 23.704 137.603 25.2038C136.271 26.7378 135.196 29.4283 133.663 34.3216L122.677 69.3099C122.642 69.4237 122.536 69.5011 122.417 69.5011H122.089C121.97 69.5011 121.865 69.4241 121.829 69.3107L109.217 29.5734C109.217 29.5732 109.217 29.5736 109.217 29.5734C108.342 26.8562 107.485 25.3825 106.274 24.5091C105.056 23.6304 103.438 23.3245 100.931 23.0673C100.786 23.0524 100.679 22.9269 100.686 22.7818ZM124.712 61.0082C124.669 61.0344 124.62 61.0491 124.567 61.0489C124.447 61.0485 124.342 60.97 124.307 60.8553L114.937 30.0258C114.249 27.6972 114.221 25.9094 114.99 24.6453C115.422 23.9361 116.086 23.4207 116.966 23.0687H104.385C105.234 23.2968 105.959 23.6083 106.594 24.0663C107.952 25.0465 108.853 26.6636 109.736 29.4061L109.737 29.4072L122.253 68.8401L124.712 61.0082ZM133.529 32.9401C134.174 30.8007 134.542 29.1192 134.671 27.793C134.815 26.3079 134.662 25.2364 134.229 24.4628C133.836 23.7601 133.231 23.3379 132.497 23.0687H139.892C138.838 23.4098 137.97 23.9484 137.19 24.8458C135.893 26.3398 134.86 28.812 133.529 32.9401Z" fill="#482817"/>
<path d="M156.849 68.309H141.889C144.815 67.9159 146.77 67.3371 146.77 61.9972V29.0948C146.77 23.7658 144.815 23.1761 141.889 22.783H156.849C153.988 23.1761 151.968 23.7549 151.968 29.0948V62.0081C151.979 67.3371 153.988 67.9268 156.849 68.309Z" fill="#482817"/>
<path fill-rule="evenodd" clip-rule="evenodd" d="M141.618 22.7668C141.628 22.6234 141.747 22.512 141.891 22.512H156.851C156.995 22.512 157.114 22.6231 157.124 22.7663C157.133 22.9096 157.031 23.0359 156.888 23.0554C155.45 23.2531 154.32 23.4905 153.53 24.279C152.746 25.0622 152.243 26.4492 152.243 29.0968L152.243 62.0095C152.243 62.0097 152.243 62.0099 152.243 62.01C152.248 64.652 152.751 66.0393 153.535 66.8226C154.323 67.6108 155.45 67.8484 156.887 68.0404C157.03 68.0594 157.133 68.1857 157.124 68.3291C157.114 68.4726 156.995 68.584 156.851 68.584H141.891C141.747 68.584 141.628 68.4726 141.618 68.3292C141.609 68.1858 141.712 68.0596 141.854 68.0404C143.326 67.8427 144.454 67.605 145.235 66.8179C146.011 66.0354 146.499 64.6489 146.499 61.9992V29.0968C146.499 26.4527 146.011 25.066 145.235 24.282C144.454 23.4935 143.326 23.2532 141.854 23.0555C141.712 23.0364 141.609 22.9101 141.618 22.7668ZM144.329 23.058C144.812 23.254 145.249 23.5202 145.623 23.8978C146.555 24.8392 147.045 26.4119 147.045 29.0968V61.9992C147.045 64.6894 146.555 66.2623 145.622 67.2024C145.25 67.5781 144.815 67.8429 144.334 68.038H154.426C153.952 67.8439 153.521 67.5806 153.149 67.2087C152.209 66.2694 151.702 64.6974 151.697 62.0107L151.697 62.0101V29.0968C151.697 26.4044 152.204 24.8321 153.145 23.8926C153.52 23.5175 153.957 23.2529 154.436 23.058H144.329Z" fill="#482817"/>
<path d="M189.956 32.3488V69.1606H189.366L166.215 28.1227V58.7537C166.215 64.0827 168.17 67.9266 171.031 68.3088H160.755C163.682 67.9157 165.637 64.0827 165.637 58.7537V31.5735C165.637 26.2445 164.075 23.8311 160.755 22.7937H169.601L189.432 57.6508V32.3488C189.432 27.0198 187.411 23.1759 184.55 22.7937H194.826C191.965 23.1759 189.956 27.0198 189.956 32.3488Z" fill="#482817"/>
<path fill-rule="evenodd" clip-rule="evenodd" d="M160.487 22.7545C160.508 22.6212 160.622 22.5227 160.757 22.5227H169.602C169.701 22.5227 169.791 22.5754 169.84 22.6607L189.16 56.6208V32.3508C189.16 29.7175 188.661 27.4698 187.823 25.8432C186.984 24.2142 185.826 23.2413 184.516 23.0663C184.374 23.0473 184.27 22.921 184.28 22.7776C184.289 22.6342 184.408 22.5227 184.552 22.5227H194.828C194.972 22.5227 195.091 22.6342 195.1 22.7776C195.11 22.921 195.007 23.0473 194.864 23.0663C193.554 23.2413 192.399 24.214 191.563 25.8429C190.728 27.4695 190.231 29.7172 190.231 32.3508V69.1626C190.231 69.3134 190.108 69.4356 189.958 69.4356H189.368C189.269 69.4356 189.179 69.3825 189.13 69.2967L166.49 29.1643V58.7557C166.49 61.3904 166.974 63.6386 167.796 65.2652C168.619 66.8939 169.76 67.8654 171.069 68.0402C171.212 68.0593 171.315 68.1855 171.305 68.329C171.296 68.4724 171.177 68.5838 171.033 68.5838H160.757C160.613 68.5838 160.494 68.4724 160.485 68.3291C160.475 68.1857 160.578 68.0594 160.721 68.0403C162.065 67.8597 163.222 66.8857 164.052 65.2601C164.882 63.6354 165.365 61.3905 165.365 58.7557V31.5755C165.365 28.9319 164.977 27.0518 164.206 25.7124C163.442 24.3847 162.284 23.559 160.676 23.0563C160.547 23.0161 160.467 22.8878 160.487 22.7545ZM162.163 23.0687C163.228 23.6129 164.068 24.3774 164.679 25.4401C165.519 26.899 165.911 28.8901 165.911 31.5755V58.7557C165.911 61.45 165.418 63.7861 164.538 65.5084C163.965 66.6311 163.22 67.506 162.332 68.0378H169.481C168.609 67.5064 167.875 66.6317 167.309 65.5115C166.438 63.7883 165.944 61.4501 165.944 58.7557V28.1247C165.944 28.0007 166.028 27.8922 166.148 27.8607C166.268 27.8292 166.394 27.8825 166.455 27.9906L189.527 68.8896H189.685V57.7598C189.652 57.8355 189.587 57.8947 189.503 57.9167C189.384 57.9484 189.257 57.8955 189.196 57.7878L169.444 23.0687H162.163ZM189.695 31.6723C189.774 29.2628 190.267 27.1704 191.077 25.5935C191.652 24.4737 192.395 23.5997 193.271 23.0687H186.11C186.987 23.5997 187.732 24.4735 188.308 25.5932C189.121 27.1701 189.617 29.2626 189.695 31.6723Z" fill="#482817"/>
<path d="M253.286 75.7894C245.03 75.7894 235.857 72.9939 230.714 63.8209C227.46 58.0333 225.188 54.3859 222.524 54.3859H218.756V61.9973C218.756 67.3263 220.776 67.916 223.637 68.3091H208.677C211.603 67.916 213.558 67.3372 213.558 61.9973V29.0949C213.558 23.7659 211.603 23.1762 208.677 22.7831H222.524C243.337 22.7175 244.178 51.8525 225.057 54.2003C230.648 54.9101 233.247 58.0988 236.305 62.9146C242.289 72.2185 250.676 74.883 257.381 74.883C259.718 74.883 261.803 74.5554 263.496 74.1077L263.561 74.3698C260.635 75.2106 257.053 75.7894 253.286 75.7894ZM218.756 53.8072H222.524C237.157 53.8072 237.222 23.3728 222.524 23.3728H222.393C219.728 23.3728 218.756 24.028 218.756 28.8328V53.8072Z" fill="#482817"/>
<path fill-rule="evenodd" clip-rule="evenodd" d="M234.196 27.5274C231.544 24.8249 227.662 23.0419 222.526 23.0581L222.525 23.0581H211.117C211.6 23.2541 212.037 23.5203 212.411 23.8979C213.343 24.8393 213.833 26.412 213.833 29.0969V61.9993C213.833 64.6895 213.343 66.2624 212.411 67.2025C212.038 67.5782 211.603 67.843 211.122 68.0381H221.23C220.748 67.8422 220.31 67.5763 219.933 67.1992C218.992 66.2585 218.485 64.6864 218.485 61.9993V54.388C218.485 54.2372 218.607 54.1149 218.758 54.1149H222.525C223.991 54.1149 225.296 55.1178 226.613 56.7646C227.937 58.4202 229.328 60.7988 230.954 63.6891L230.954 63.6894C236.031 72.7443 245.088 75.5184 253.288 75.5184C255.17 75.5184 257.007 75.3728 258.736 75.1217C258.295 75.1454 257.844 75.158 257.383 75.158C250.601 75.158 242.12 72.4593 236.077 63.0643L236.076 63.0629C234.549 60.6568 233.153 58.6861 231.455 57.2267C229.766 55.7747 227.769 54.8215 225.025 54.4731C224.888 54.4558 224.786 54.3394 224.786 54.2017C224.786 54.0641 224.889 53.9481 225.026 53.9313C234.417 52.7782 238.911 45.0576 238.495 37.6039C238.288 33.8776 236.852 30.2336 234.196 27.5274ZM226.667 54.2122C235.323 52.3885 239.445 44.8309 239.04 37.5735C238.826 33.7308 237.345 29.9566 234.586 27.145C231.824 24.3299 227.796 22.4956 222.525 22.5121H208.679C208.535 22.5121 208.416 22.6235 208.406 22.7669C208.397 22.9102 208.5 23.0365 208.642 23.0556C210.114 23.2533 211.242 23.4936 212.023 24.2822C212.799 25.0661 213.287 26.4528 213.287 29.0969V61.9993C213.287 64.649 212.799 66.0355 212.023 66.818C211.242 67.6051 210.114 67.8428 208.642 68.0406C208.5 68.0597 208.397 68.186 208.406 68.3293C208.416 68.4727 208.535 68.5841 208.679 68.5841H223.639C223.783 68.5841 223.902 68.473 223.912 68.3298C223.922 68.1865 223.819 68.0602 223.677 68.0407C222.238 67.8431 221.109 67.603 220.319 66.8131C219.534 66.0285 219.031 64.6412 219.031 61.9993V54.661H222.525C223.725 54.661 224.888 55.4817 226.186 57.1056C227.478 58.7206 228.849 61.0594 230.478 63.9567C235.687 73.2475 244.976 76.0644 253.288 76.0644C257.082 76.0644 260.689 75.4817 263.639 74.6342C263.78 74.5936 263.864 74.4483 263.828 74.3056L263.763 74.0435C263.745 73.9726 263.7 73.9118 263.637 73.8747C263.574 73.8375 263.499 73.8271 263.428 73.8458C261.757 74.2879 259.694 74.612 257.383 74.612C250.754 74.612 242.462 71.9819 236.537 62.7698C235.007 60.3603 233.575 58.329 231.811 56.8127C230.382 55.5842 228.741 54.6986 226.667 54.2122ZM219.359 24.1387C220.022 23.2587 221.061 23.1018 222.394 23.1018H222.525C226.311 23.1018 229.142 25.0671 231.014 27.9826C232.881 30.8902 233.802 34.7493 233.798 38.5923C233.794 42.4353 232.864 46.2941 230.995 49.2014C229.121 52.1165 226.295 54.0822 222.525 54.0822H218.758C218.607 54.0822 218.485 53.96 218.485 53.8092V28.8348C218.485 27.6267 218.546 26.6665 218.683 25.9063C218.82 25.1468 219.035 24.5681 219.359 24.1387ZM219.031 53.5362H222.525C226.073 53.5362 228.742 51.6976 230.536 48.9062C232.336 46.1071 233.248 42.3573 233.252 38.5917C233.256 34.8261 232.352 31.0765 230.554 28.2777C228.762 25.4867 226.09 23.6478 222.525 23.6478H222.394C221.063 23.6478 220.284 23.8184 219.795 24.4673C219.543 24.8023 219.349 25.2882 219.22 26.003C219.092 26.7171 219.031 27.6405 219.031 28.8348V53.5362Z" fill="#482817"/>
<path d="M267.407 69.2989C255.504 69.2989 243.667 61.3599 243.667 45.5585C243.667 29.6915 255.57 21.8181 267.407 21.8181C279.31 21.8181 291.148 29.6915 291.148 45.5585C291.148 61.3599 279.245 69.2989 267.407 69.2989ZM269.362 68.3816C277.88 68.3816 285.884 61.753 285.95 48.8018C286.081 31.5698 275.019 22.7245 264.939 22.7245C256.553 22.7245 248.876 28.8398 248.876 41.387C248.876 59.5363 259.479 68.3816 269.362 68.3816Z" fill="#482817"/>
<path fill-rule="evenodd" clip-rule="evenodd" d="M251.281 27.9442C246.887 31.8416 243.942 37.7009 243.942 45.5603C243.942 53.387 246.871 59.2466 251.257 63.1521C255.648 67.062 261.516 69.0276 267.409 69.0276C273.269 69.0276 279.138 67.0622 283.537 63.1519C287.932 59.2461 290.877 53.3865 290.877 45.5603C290.877 37.7004 287.947 31.8411 283.562 27.944C279.171 24.0424 273.303 22.0929 267.409 22.0929C261.548 22.0929 255.68 24.0423 251.281 27.9442ZM250.919 27.5357C255.43 23.5342 261.433 21.5469 267.409 21.5469C273.418 21.5469 279.421 23.534 283.924 27.5359C288.433 31.5422 291.423 37.5531 291.423 45.5603C291.423 53.5354 288.416 59.546 283.9 63.56C279.389 67.5696 273.386 69.5736 267.409 69.5736C261.399 69.5736 255.397 67.5698 250.894 63.5599C246.386 59.5456 243.396 53.5349 243.396 45.5603C243.396 37.5526 246.402 31.5418 250.919 27.5357ZM253.567 27.1634C256.591 24.0073 260.681 22.4532 264.941 22.4532C275.192 22.4532 286.357 31.4424 286.225 48.8054C286.191 55.338 284.155 60.3028 281.026 63.637C277.898 66.9705 273.695 68.6563 269.364 68.6563C259.295 68.6563 248.605 59.6511 248.605 41.3888C248.605 35.0582 250.543 30.3204 253.567 27.1634ZM286.225 48.8054C286.225 48.8054 286.225 48.8055 286.225 48.8056L285.952 48.8035L286.225 48.8049C286.225 48.8051 286.225 48.8052 286.225 48.8054ZM253.962 27.5412C251.051 30.5786 249.151 35.1721 249.151 41.3888C249.151 59.425 259.667 68.1103 269.364 68.1103C273.551 68.1103 277.608 66.4819 280.628 63.2634C283.648 60.0455 285.646 55.2206 285.679 48.8022L285.679 48.8015C285.809 31.7007 274.849 22.9993 264.941 22.9993C260.815 22.9993 256.873 24.5028 253.962 27.5412Z" fill="#482817"/>
<path d="M312.576 69.2918C305.554 69.2918 298.598 64.4105 298.653 54.7244V29.0948C298.653 23.7658 296.698 23.1761 293.772 22.783H308.798C305.871 23.1761 303.916 23.7549 303.916 29.0948V54.7134C303.916 63.4277 309.246 67.5883 314.651 67.5883C320.242 67.5883 325.899 63.1656 325.899 54.7134V32.349C325.899 27.02 323.944 23.1761 321.017 22.7939H331.293C328.432 23.187 326.477 27.02 326.477 32.349V54.7244C326.63 64.4105 319.598 69.2918 312.576 69.2918Z" fill="#482817"/>
<path fill-rule="evenodd" clip-rule="evenodd" d="M293.501 22.7668C293.511 22.6234 293.63 22.512 293.774 22.512H308.8C308.943 22.512 309.063 22.6234 309.072 22.7668C309.082 22.9101 308.979 23.0364 308.836 23.0555C307.364 23.2533 306.236 23.491 305.455 24.2781C304.679 25.0606 304.191 26.4471 304.191 29.0968V54.7154C304.191 59.0156 305.505 62.1632 307.457 64.2334C309.41 66.3048 312.021 67.3173 314.653 67.3173C320.087 67.3173 325.628 63.0228 325.628 54.7154V32.351C325.628 29.7162 325.144 27.4685 324.314 25.8425C323.484 24.2154 322.327 23.242 320.984 23.0666C320.841 23.048 320.738 22.9218 320.747 22.7782C320.756 22.6346 320.875 22.5229 321.019 22.5229H331.295C331.439 22.5229 331.558 22.634 331.568 22.7773C331.577 22.9205 331.475 23.0468 331.332 23.0663C330.022 23.2463 328.881 24.2185 328.058 25.8457C327.236 27.4709 326.752 29.7163 326.752 32.351V54.7242C326.829 59.6381 325.082 63.3554 322.405 65.8424C319.732 68.3255 316.15 69.5668 312.578 69.5668C309.006 69.5668 305.443 68.3253 302.777 65.8422C300.107 63.3553 298.354 59.6386 298.382 54.7256V29.0968C298.382 26.4527 297.894 25.066 297.118 24.282C296.337 23.4935 295.209 23.2532 293.737 23.0555C293.595 23.0364 293.492 22.9101 293.501 22.7668ZM296.212 23.058C296.695 23.254 297.132 23.5202 297.506 23.8978C298.438 24.8392 298.928 26.4119 298.928 29.0968V54.7264L298.928 54.7279C298.901 59.5006 300.599 63.0675 303.149 65.4426C305.703 67.8217 309.129 69.0208 312.578 69.0208C316.028 69.0208 319.473 67.8215 322.033 65.4424C324.59 63.0676 326.282 59.5018 326.206 54.7307L326.206 54.7264H326.206V32.351C326.206 29.6566 326.7 27.3211 327.571 25.5993C328.138 24.477 328.875 23.6012 329.749 23.0689H322.601C323.486 23.5998 324.229 24.4737 324.801 25.5943C325.68 27.318 326.174 29.6568 326.174 32.351V54.7154C326.174 63.3125 320.401 67.8633 314.653 67.8633C311.88 67.8633 309.123 66.7955 307.06 64.608C304.996 62.4194 303.645 59.1295 303.645 54.7154V29.0968C303.645 26.4066 304.135 24.8337 305.068 23.8936C305.44 23.5179 305.875 23.2531 306.356 23.058H296.212Z" fill="#482817"/>
<path d="M357.231 69.2322C344.934 69.2322 333.359 61.2932 333.359 45.9505C333.359 30.3456 345.393 21.948 357.809 21.948C363.531 21.948 369.319 23.7061 374.135 27.3425L372.115 36.712C372.955 29.6904 367.561 22.7342 359.043 22.7342C348.243 22.4066 339.147 29.9525 339.201 43.9412C339.201 60.911 349.87 68.0637 358.912 68.0637C365.475 68.0637 371.208 64.2308 371.208 57.5913V52.8411C371.208 47.512 369.254 46.8568 366.327 46.5292H381.288C378.426 46.8568 376.406 47.5011 376.406 52.8411V68.708C375.696 66.5568 374.648 65.5849 373.021 65.5849C371.984 65.5849 370.815 65.978 369.319 66.5568C365.497 68.3149 361.336 69.2322 357.231 69.2322Z" fill="#482817"/>
<path fill-rule="evenodd" clip-rule="evenodd" d="M341.111 28.3035C336.61 32.3004 333.634 38.2261 333.634 45.9525C333.634 53.5494 336.497 59.2938 340.866 63.142C345.24 66.9945 351.141 68.9612 357.232 68.9612C361.298 68.9612 365.42 68.0527 369.207 66.3107C369.212 66.3084 369.217 66.3062 369.222 66.3041C370.712 65.7279 371.927 65.3139 373.023 65.3139C373.897 65.3139 374.635 65.5777 375.245 66.1412C375.584 66.4549 375.878 66.8557 376.135 67.3427V52.8431C376.135 50.1508 376.642 48.5628 377.582 47.6152C377.94 47.2547 378.352 46.9957 378.805 46.8042H368.837C369.293 46.9968 369.706 47.2574 370.062 47.6204C370.993 48.5699 371.483 50.1582 371.483 52.8431V57.5933C371.483 61.0002 370.009 63.6957 367.693 65.5332C365.383 67.3662 362.246 68.3387 358.914 68.3387C354.323 68.3387 349.323 66.5233 345.472 62.5584C341.618 58.5905 338.93 52.488 338.93 43.9437C338.93 43.9435 338.93 43.9433 338.93 43.9432H339.203L338.93 43.9442C338.93 43.944 338.93 43.9439 338.93 43.9437C338.903 36.8885 341.184 31.4308 344.861 27.7774C348.536 24.1258 353.584 22.2985 359.049 22.4633C359.048 22.4633 359.046 22.4633 359.045 22.4633V22.7363L359.053 22.4634C359.052 22.4633 359.051 22.4633 359.049 22.4633C366.631 22.4652 371.8 27.8819 372.414 34.0383L371.85 36.6565L372.116 36.714L372.388 36.7465C372.496 35.8377 372.503 34.9302 372.414 34.0383L373.833 27.458C373.879 27.4926 373.926 27.5274 373.972 27.5624L374.137 27.3446L373.87 27.287L373.833 27.458C369.096 23.9305 363.423 22.223 357.811 22.223C351.662 22.223 345.616 24.3026 341.111 28.3035ZM340.749 27.8953C345.364 23.7962 351.544 21.677 357.811 21.677C363.589 21.677 369.435 23.4521 374.301 27.1267C374.386 27.1907 374.426 27.2982 374.404 27.4021L372.383 36.7716C372.353 36.9141 372.215 37.0074 372.071 36.9833C371.928 36.9592 371.828 36.8264 371.845 36.6816C372.667 29.8208 367.398 23.0093 359.045 23.0093H359.037L359.037 23.0091C353.703 22.8474 348.805 24.6291 345.246 28.1648C341.689 31.6995 339.449 37.0088 339.476 43.9421L339.476 43.9432C339.476 52.3685 342.123 58.3271 345.864 62.1779C349.607 66.0318 354.463 67.7927 358.914 67.7927C362.145 67.7927 365.156 66.8488 367.353 65.1055C369.545 63.3666 370.937 60.8259 370.937 57.5933V52.8431C370.937 50.1989 370.449 48.7951 369.672 48.0028C368.892 47.2081 367.765 46.9667 366.298 46.8025C366.154 46.7864 366.048 46.6607 366.056 46.516C366.064 46.3714 366.184 46.2582 366.329 46.2582H381.289C381.434 46.2582 381.554 46.3712 381.562 46.5157C381.57 46.6602 381.464 46.786 381.32 46.8025C379.887 46.9666 378.758 47.2051 377.97 47.9998C377.184 48.7913 376.681 50.1954 376.681 52.8431V68.71C376.681 68.8441 376.584 68.9583 376.451 68.9796C376.319 69.0008 376.191 68.9229 376.149 68.7956C375.801 67.742 375.381 67.0101 374.874 66.5423C374.376 66.082 373.776 65.8599 373.023 65.8599C372.046 65.8599 370.926 66.2308 369.427 66.8104C365.572 68.5823 361.376 69.5072 357.232 69.5072C351.028 69.5072 344.993 67.5044 340.505 63.5517C336.013 59.5948 333.088 53.6984 333.088 45.9525C333.088 38.074 336.128 31.9984 340.749 27.8953Z" fill="#482817"/>
<path d="M411.065 68.2435V68.309H382.64C385.566 67.9159 387.521 67.3371 387.521 61.9972V29.0948C387.521 23.7658 385.566 23.1761 382.64 22.783H410.279L412.168 33.8341C411.458 31.6829 410.279 23.3617 400.265 23.3617H392.719V44.0445H401.237C405.397 44.0445 405.791 40.3316 406.184 37.9292V50.7385C405.791 48.4016 405.408 44.6232 401.237 44.6232H392.719V62.2483C392.719 67.0641 393.112 67.7084 398.703 67.7084H401.04C411.054 67.7084 412.223 59.3873 412.943 57.236L411.065 68.2435Z" fill="#482817"/>
<path fill-rule="evenodd" clip-rule="evenodd" d="M382.369 22.7668C382.379 22.6234 382.498 22.512 382.642 22.512H410.281C410.414 22.512 410.527 22.6078 410.55 22.739L412.439 33.7901C412.463 33.931 412.374 34.0665 412.236 34.1011C412.097 34.1356 411.955 34.0574 411.91 33.9217C411.836 33.6954 411.758 33.4109 411.668 33.0821C411.311 31.7825 410.764 29.7893 409.483 27.9492C407.897 25.6708 405.181 23.6367 400.267 23.6367H392.994V43.7735H401.239C402.237 43.7735 402.99 43.5513 403.569 43.1961C404.148 42.8407 404.569 42.3413 404.885 41.7594C405.468 40.6871 405.678 39.3705 405.862 38.2221C405.88 38.1087 405.898 37.9969 405.916 37.8871C405.939 37.7468 406.066 37.6476 406.208 37.6591C406.349 37.6706 406.459 37.789 406.459 37.9312V50.7405C406.459 50.8825 406.35 51.0008 406.208 51.0126C406.067 51.0244 405.94 50.9258 405.916 50.7858C405.895 50.6612 405.875 50.5336 405.853 50.4034C405.672 49.2909 405.461 47.9988 404.889 46.936C404.573 46.3497 404.152 45.8442 403.572 45.484C402.993 45.1242 402.239 44.8982 401.239 44.8982H392.994V62.2503C392.994 63.4562 393.019 64.3778 393.139 65.0898C393.258 65.7981 393.466 66.2645 393.805 66.5891C394.147 66.9159 394.657 67.1335 395.456 67.2651C396.255 67.3968 397.308 67.4374 398.705 67.4374H401.042C405.957 67.4374 408.67 65.4034 410.254 63.125C411.527 61.2956 412.074 59.3162 412.434 58.0155C412.527 57.6764 412.608 57.3834 412.686 57.1513C412.732 57.016 412.873 56.9385 413.012 56.9732C413.15 57.008 413.238 57.1433 413.214 57.2839L411.34 68.2686V68.311C411.34 68.4618 411.218 68.584 411.067 68.584H382.642C382.498 68.584 382.379 68.4726 382.369 68.3292C382.36 68.1858 382.463 68.0596 382.605 68.0404C384.077 67.8427 385.205 67.605 385.986 66.8179C386.762 66.0354 387.25 64.6489 387.25 61.9992V29.0968C387.25 26.4527 386.762 25.066 385.986 24.282C385.205 23.4935 384.077 23.2532 382.605 23.0555C382.463 23.0364 382.36 22.9101 382.369 22.7668ZM385.08 23.058C385.563 23.254 386 23.5202 386.374 23.8978C387.306 24.8392 387.796 26.4119 387.796 29.0968V61.9992C387.796 64.6894 387.306 66.2623 386.374 67.2024C386.001 67.5781 385.566 67.8429 385.085 68.038H410.825L412.03 60.9804C411.695 61.7828 411.266 62.6269 410.703 63.4368C409.019 65.8568 406.141 67.9834 401.042 67.9834H398.705C397.307 67.9834 396.214 67.9435 395.367 67.8039C394.52 67.6642 393.883 67.4197 393.428 66.9835C392.97 66.545 392.73 65.9474 392.601 65.1805C392.472 64.4173 392.448 63.4524 392.448 62.2503V44.6252C392.448 44.4745 392.57 44.3522 392.721 44.3522H401.239C402.324 44.3522 403.182 44.5986 403.86 45.0203C404.538 45.4415 405.019 46.0267 405.369 46.6771C405.599 47.1025 405.774 47.5605 405.913 48.0246V40.6681C405.773 41.1352 405.596 41.5946 405.365 42.0201C405.013 42.6667 404.532 43.2457 403.854 43.6615C403.177 44.0776 402.321 44.3195 401.239 44.3195H392.721C392.57 44.3195 392.448 44.1972 392.448 44.0465V23.3637C392.448 23.213 392.57 23.0907 392.721 23.0907H400.267C405.366 23.0907 408.247 25.2173 409.931 27.6372C410.489 28.439 410.916 29.2742 411.249 30.0692L410.05 23.058H385.08Z" fill="#482817"/>
</svg>
