<svg width="170" height="175" viewBox="0 0 170 175" fill="none" xmlns="http://www.w3.org/2000/svg">
<path d="M34.4 75.0551C36.6995 81.2447 42.4111 88.9746 56.33 93.5397C58.265 94.1745 59.9476 95.0708 61.4152 96.1724C54.8624 93.6704 45.3276 91.8966 34.7645 95.9296C34.5028 96.0323 34.3532 96.3124 34.4093 96.5831C34.6243 97.5634 34.8674 98.5343 35.1291 99.4959C35.2226 99.8133 35.5778 99.9813 35.8863 99.86C51.1513 93.8478 64.1261 101.568 67.2482 103.688C71.3332 112.472 71.3145 125.085 71.2958 136.698L71.2865 138.472C71.2865 138.771 71.5295 139.023 71.8287 139.023H74.8106C75.1098 139.023 75.3528 138.78 75.3528 138.482L75.3622 136.717C75.3902 117.411 75.4276 95.5375 57.5919 89.6841C57.5639 89.6748 57.5452 89.6747 57.5265 89.6654C55.928 81.9075 57.0404 75.4099 58.1435 69.1176C59.5924 60.7809 60.9665 52.8736 55.2643 44.1261C55.0867 43.8554 54.7128 43.79 54.4511 43.9767C53.6471 44.5649 52.8619 45.1717 52.0954 45.7972C51.8711 45.9745 51.8337 46.3013 51.9832 46.5347C56.6665 53.8538 55.5354 60.3701 54.1332 68.4268C53.133 74.1496 52.03 80.5351 53.0956 87.957C40.3078 82.3089 37.5502 73.7294 37.0361 69.155C36.9706 68.5668 36.1387 68.4735 35.9517 69.0336C35.3161 70.8914 34.7926 72.7959 34.3719 74.7377C34.3626 74.8404 34.3626 74.9524 34.4 75.0551Z" fill="#9E845C"/>
<path d="M133.543 99.9719C133.852 100.084 134.197 99.9252 134.291 99.6078C134.562 98.6462 134.805 97.6753 135.02 96.7044C135.076 96.4337 134.927 96.1443 134.655 96.0509C120.344 90.795 107.762 94.9773 101.2 98.1795C102.929 93.7077 105.658 89.852 109.958 87.6115C114.642 85.1749 119.25 84.1293 123.307 83.2051C128.047 82.1315 132.618 81.0952 135.45 77.8557C135.562 77.725 135.609 77.557 135.581 77.389C135.347 75.9419 135.057 74.5136 134.702 73.1039C134.562 72.5624 133.814 72.5437 133.618 73.0665C132.262 76.8288 128.813 77.781 122.391 79.2561C118.091 80.2363 113.212 81.3473 108.07 84.0266C105.948 85.1282 104.153 86.5286 102.63 88.125C99.9843 84.8295 97.6193 79.9469 97.7409 74.5416C97.853 69.8084 99.8909 65.6074 103.798 62.0691C111.342 55.2261 113.127 48.5885 113.137 42.9964C113.137 42.8097 113.043 42.6323 112.875 42.5203C111.884 41.8668 110.875 41.2506 109.837 40.6718C109.454 40.4571 108.977 40.7558 109.005 41.2039C109.407 46.6093 108.285 52.5001 101.05 59.0631C96.3574 63.3201 93.8054 68.6414 93.6652 74.4482C93.4969 81.3379 96.6752 87.4808 100.05 91.3924C94.0672 100.579 94.0859 113.863 94.0952 121.92V138.5C94.0952 138.799 94.3383 139.042 94.6374 139.042H97.6193C97.9185 139.042 98.1615 138.799 98.1615 138.5V121.911C98.1522 117.084 98.1428 110.213 99.5357 103.734C103.013 101.587 117.259 93.8757 133.543 99.9719Z" fill="#9E845C"/>
<path d="M84.5885 75.4565C88.2622 69.3417 92.8333 61.7331 93.5998 51.9773C94.3757 42.0815 96.7781 38.2072 98.2176 36.7509C98.5168 36.4521 98.3765 35.9387 97.9652 35.8267C96.8809 35.5372 95.7872 35.2852 94.6748 35.0705C94.4598 35.0331 94.2448 35.1171 94.1139 35.2945C92.1883 38.0019 90.2346 42.8751 89.5428 51.6599C88.8511 60.4728 84.7287 67.3158 81.1017 73.3653C79.1854 76.5581 77.4281 79.4802 76.3624 82.3556C71.8567 75.3538 68.9028 69.7898 73.5581 57.476C78.1665 45.293 79.2883 38.4593 79.4659 35.0238C79.4846 34.6784 79.1854 34.4076 78.8396 34.445C77.8207 34.5663 76.8111 34.7064 75.8109 34.8838C75.5585 34.9304 75.3715 35.1358 75.3528 35.3879C75.1004 38.4686 74.0067 44.8169 69.7535 56.0383C64.1074 70.9567 68.772 78.1452 73.717 85.7537C77.9328 92.242 82.7096 99.5985 82.7096 113.677V138.482C82.7096 138.78 82.9526 139.023 83.2517 139.023H86.2337C86.5328 139.023 86.7759 138.78 86.7759 138.482V113.677C86.7759 101.027 83.1115 93.2036 79.4098 87.1354C79.6341 83.7092 81.943 79.8723 84.5885 75.4565Z" fill="#9E845C"/>
<path d="M110.529 71.2646L109.659 71.4513C105.247 72.4129 102.443 76.7633 103.406 81.1791L103.593 82.0473C103.658 82.3274 103.929 82.5048 104.219 82.4488L105.088 82.262C109.5 81.3005 112.305 76.95 111.342 72.5343L111.155 71.6661C111.09 71.3767 110.809 71.1993 110.529 71.2646Z" fill="#9E845C"/>
<path d="M113.866 109.485L114.632 109.037C114.885 108.897 114.969 108.57 114.829 108.318L114.38 107.552C112.118 103.641 107.117 102.306 103.2 104.565L102.433 105.013C102.181 105.153 102.097 105.48 102.237 105.732L102.686 106.497C104.948 110.4 109.949 111.744 113.866 109.485Z" fill="#9E845C"/>
<path d="M92.1789 100.336L93.0203 100.635C93.2913 100.737 93.5905 100.588 93.6933 100.317L93.9924 99.4864C95.5348 95.248 93.3287 90.5615 89.0848 89.0211L88.2435 88.7224C87.9724 88.6197 87.6733 88.7691 87.5705 89.0398L87.2713 89.8707C85.7383 94.1091 87.935 98.7956 92.1789 100.336Z" fill="#9E845C"/>
<path d="M91.0479 78.2665C86.5702 77.6316 82.4292 80.7404 81.7935 85.2029L81.672 86.0804C81.6346 86.3698 81.8309 86.6312 82.1207 86.6686L82.99 86.8086C87.4676 87.4434 91.6087 84.344 92.2444 79.8722L92.3659 78.9946C92.4033 78.7052 92.207 78.4438 91.9172 78.4065L91.0479 78.2665Z" fill="#9E845C"/>
<path d="M84.1024 55.4128C79.6342 54.7499 75.4744 57.84 74.8107 62.3025L74.6798 63.18C74.6331 63.4694 74.8387 63.7308 75.1192 63.7775L75.9979 63.9082C80.4661 64.571 84.6259 61.4809 85.2896 57.0185L85.4205 56.1409C85.4672 55.8515 85.2616 55.5901 84.9811 55.5435L84.1024 55.4128Z" fill="#9E845C"/>
<path d="M65.0983 75.9793L64.2663 76.2874C60.0317 77.8558 57.863 82.5516 59.4241 86.7806L59.7326 87.6115C59.8354 87.8823 60.1346 88.0223 60.4057 87.9196L61.2376 87.6115C65.4722 86.0525 67.6409 81.3473 66.0798 77.1182L65.7713 76.2874C65.6778 76.026 65.3787 75.8859 65.0983 75.9793Z" fill="#9E845C"/>
<path d="M51.5439 67.6984L52.4226 67.8197C52.7123 67.8571 52.9741 67.661 53.0115 67.3716L53.133 66.4941C53.7686 62.0223 50.6652 57.8866 46.1875 57.2518L45.3089 57.1304C45.0191 57.0931 44.7573 57.2891 44.7199 57.5785L44.5984 58.4561C43.9628 62.9279 47.0756 67.0635 51.5439 67.6984Z" fill="#9E845C"/>
<path d="M45.8885 68.7722L45.2622 69.3977C42.0652 72.5905 42.0652 77.7624 45.2622 80.9552L45.8885 81.5807C46.0941 81.7861 46.4213 81.7861 46.6269 81.5807L47.2532 80.9552C50.4502 77.7624 50.4502 72.5905 47.2532 69.3977L46.6269 68.7722C46.4213 68.5668 46.0941 68.5668 45.8885 68.7722Z" fill="#9E845C"/>
<path d="M66.65 53.9751L67.4913 54.2739C67.7623 54.3672 68.0615 54.2272 68.1643 53.9565L68.4634 53.1163C69.9871 48.8685 67.7717 44.1914 63.5091 42.6697L62.6678 42.3709C62.3967 42.2776 62.0976 42.4176 61.9947 42.6883L61.6956 43.5285C60.1813 47.7856 62.3967 52.4534 66.65 53.9751Z" fill="#9E845C"/>
<path d="M87.2526 46.1892L88.1127 46.4039C88.3931 46.4786 88.6829 46.3012 88.7483 46.0211L88.9633 45.1622C90.0663 40.7838 87.4116 36.3494 83.0368 35.2384L82.1768 35.0237C81.8963 34.949 81.6066 35.1264 81.5411 35.4065L81.3261 36.2654C80.2137 40.6438 82.8685 45.0875 87.2526 46.1892Z" fill="#9E845C"/>
<path d="M121.325 87.9848L120.802 88.7037C120.634 88.937 120.69 89.2638 120.924 89.4318L121.643 89.9546C125.308 92.5873 130.421 91.7564 133.066 88.0968L133.59 87.378C133.758 87.1446 133.702 86.8179 133.468 86.6498L132.749 86.127C129.084 83.485 123.971 84.3252 121.325 87.9848Z" fill="#9E845C"/>
<path d="M64.902 105.013L64.1355 104.565C60.2187 102.306 55.2177 103.65 52.9555 107.552L52.5068 108.318C52.3666 108.57 52.4507 108.887 52.7031 109.037L53.4696 109.485C57.3864 111.744 62.3874 110.4 64.6496 106.497L65.0983 105.732C65.2385 105.48 65.1544 105.153 64.902 105.013Z" fill="#9E845C"/>
<path d="M120.578 99.9998L119.699 100.159C119.418 100.205 119.222 100.485 119.278 100.765L119.437 101.643C120.241 106.087 124.494 109.037 128.935 108.234L129.813 108.075C130.094 108.028 130.29 107.748 130.234 107.468L130.075 106.591C129.271 102.156 125.018 99.197 120.578 99.9998Z" fill="#9E845C"/>
<path d="M50.2632 100.159L49.3845 99.9998C44.935 99.197 40.6817 102.156 39.8871 106.591L39.7282 107.468C39.6815 107.748 39.8684 108.028 40.1489 108.075L41.0276 108.234C45.4771 109.037 49.7304 106.077 50.525 101.643L50.6839 100.765C50.74 100.485 50.553 100.205 50.2632 100.159Z" fill="#9E845C"/>
<path d="M116.67 65.9994C116.885 65.8034 116.895 65.4673 116.698 65.2619L116.091 64.6084C113.015 61.3036 107.837 61.1075 104.527 64.179L103.873 64.7858C103.658 64.9818 103.649 65.3179 103.845 65.5233L104.453 66.1768C107.528 69.4816 112.707 69.6777 116.016 66.6062L116.67 65.9994Z" fill="#9E845C"/>
<path d="M122.709 53.4243L123.008 52.5841C123.102 52.3133 122.961 52.0146 122.69 51.9119L121.849 51.6131C117.596 50.0914 112.912 52.304 111.389 56.561L111.09 57.4013C110.996 57.672 111.136 57.9707 111.407 58.0734L112.249 58.3722C116.511 59.8845 121.195 57.672 122.709 53.4243Z" fill="#9E845C"/>
<path d="M96.722 51.2305C96.722 51.5199 96.9556 51.7533 97.2454 51.7533H98.1335C102.648 51.7533 106.313 48.0937 106.313 43.5846V42.6977C106.313 42.4083 106.079 42.1749 105.789 42.1749H104.901C100.386 42.1749 96.722 45.8345 96.722 50.3436V51.2305Z" fill="#9E845C"/>
<path d="M120.587 75.774C120.624 76.0634 120.896 76.2594 121.185 76.2221L122.064 76.0914C126.532 75.4472 129.636 71.3022 128.991 66.8397L128.86 65.9622C128.822 65.6728 128.551 65.4767 128.262 65.5141L127.383 65.6448C122.915 66.2889 119.811 70.434 120.447 74.8964L120.587 75.774Z" fill="#9E845C"/>
<path d="M35.3068 25.7534L32.6239 15.3815L31.1844 16.5017L33.2596 24.5024L26.0057 20.5441L24.4446 21.7671L33.8859 26.855L35.3068 25.7534Z" fill="#9E845C"/>
<path d="M39.0422 11.5154L37.4697 12.436L42.4427 20.9087L44.0153 19.9881L39.0422 11.5154Z" fill="#9E845C"/>
<path d="M50.9457 16.4458L48.4404 10.2843L55.9654 14.4013L57.3583 13.8412L53.6565 4.73889L51.9833 5.42039L54.4885 11.5819L46.9541 7.4649L45.5613 8.02504L49.263 17.1273L50.9457 16.4458Z" fill="#9E845C"/>
<path d="M71.9315 10.4802L71.6137 7.63286L73.8198 7.38079C73.988 7.36212 74.1096 7.34345 74.1937 7.32478L76.5119 9.95743L78.4656 9.73338L75.8576 6.78331C76.5026 6.44723 76.97 5.99912 77.2691 5.42031C77.5682 4.8415 77.6711 4.19733 77.5963 3.45982C77.5122 2.74097 77.2785 2.14349 76.8859 1.66737C76.4932 1.18192 75.9698 0.836499 75.3061 0.631114C74.6424 0.42573 73.8945 0.369716 73.0439 0.463072L69.015 0.92052L70.118 10.6763L71.9315 10.4802ZM73.128 2.01279C73.9226 1.91943 74.5395 2.02213 74.9882 2.31153C75.4369 2.60094 75.6987 3.05838 75.7641 3.67454C75.8296 4.29069 75.68 4.80415 75.3154 5.18691C74.9415 5.56968 74.3619 5.8124 73.5767 5.89642L71.4548 6.13915L71.0154 2.24618L73.128 2.01279Z" fill="#9E845C"/>
<path d="M85.4766 9.24794C86.2524 9.73339 87.1405 10.0135 88.1407 10.0788C89.1409 10.1442 90.057 9.99479 90.889 9.61203C91.7209 9.22927 92.394 8.67846 92.8987 7.94095C93.4035 7.20343 93.6933 6.36322 93.7587 5.40165C93.8242 4.44007 93.6559 3.56252 93.2446 2.76899C92.8427 1.97546 92.2444 1.3313 91.4779 0.845847C90.702 0.360393 89.814 0.0803233 88.8137 0.0149737C87.8135 -0.0503759 86.8974 0.0989945 86.0655 0.481756C85.2335 0.864518 84.5605 1.42466 84.0557 2.16217C83.5416 2.89969 83.2611 3.74924 83.1957 4.70147C83.1303 5.65371 83.2985 6.53126 83.7098 7.33413C84.1118 8.10899 84.7007 8.75315 85.4766 9.24794ZM85.0372 4.80416C85.084 4.15067 85.2709 3.57186 85.6074 3.06773C85.944 2.56361 86.3833 2.18085 86.9255 1.91945C87.4676 1.65805 88.0659 1.55536 88.7203 1.60204C89.3746 1.64871 89.9542 1.83543 90.459 2.16217C90.9637 2.48892 91.347 2.9277 91.6087 3.4785C91.8705 4.02931 91.9826 4.62679 91.9359 5.28028C91.8892 5.93378 91.7022 6.51259 91.3657 7.01672C91.0292 7.52084 90.5898 7.9036 90.0477 8.165C89.4961 8.41706 88.8979 8.52909 88.2435 8.48241C87.5892 8.43574 87.0096 8.24902 86.5048 7.92227C86 7.59553 85.6168 7.15675 85.355 6.60595C85.0933 6.06448 84.9905 5.45766 85.0372 4.80416Z" fill="#9E845C"/>
<path d="M102.583 12.4221C103.901 12.7675 105.013 12.6648 105.939 12.114C106.864 11.5632 107.5 10.6017 107.865 9.22931L109.267 3.87064L107.528 3.4132L106.145 8.70651C105.658 10.5736 104.612 11.2925 103.004 10.8724C101.387 10.4523 100.826 9.31333 101.312 7.4462L102.695 2.15288L100.928 1.69543L99.5263 7.0541C99.1711 8.42644 99.2552 9.58406 99.7974 10.5083C100.34 11.4512 101.265 12.086 102.583 12.4221Z" fill="#9E845C"/>
<path d="M114.128 15.6895C114.67 16.427 115.399 17.0058 116.306 17.4259C116.951 17.7247 117.624 17.9207 118.325 18.0141C119.026 18.1074 119.69 18.0701 120.316 17.9207L121.98 14.3732L120.419 13.645L119.119 16.4177C118.446 16.4737 117.764 16.343 117.072 16.0162C116.455 15.7268 115.96 15.3347 115.605 14.8306C115.24 14.3358 115.034 13.785 114.978 13.1782C114.922 12.5714 115.034 11.9739 115.315 11.3857C115.605 10.7789 115.988 10.2935 116.493 9.94805C116.988 9.60263 117.54 9.41592 118.157 9.37858C118.774 9.34124 119.391 9.47193 120.017 9.77068C120.98 10.2188 121.634 10.9376 121.999 11.9365L123.522 11.4044C123.326 10.7322 122.98 10.1348 122.485 9.60263C121.989 9.0705 121.372 8.63173 120.624 8.28631C119.708 7.85687 118.792 7.67015 117.876 7.71683C116.96 7.76351 116.128 8.04358 115.39 8.54771C114.651 9.05183 114.072 9.73333 113.67 10.6109C113.258 11.4791 113.099 12.366 113.193 13.2529C113.286 14.1398 113.586 14.952 114.128 15.6895Z" fill="#9E845C"/>
<path d="M131.627 24.7732L127.074 21.599L128.626 19.3771L132.524 22.0938L133.384 20.8615L129.486 18.1448L130.944 16.0537L135.338 19.1064L136.217 17.8554L130.327 13.7571L124.709 21.8138L130.757 26.0241L131.627 24.7732Z" fill="#9E845C"/>
<path d="M13.8348 117.85L5.29087 118.148L11.9465 112.799L11.3015 111.1L2.795 111.361L9.42261 106.068L8.70283 104.154L0 111.156L0.738478 113.126L9.02065 112.874L2.58935 118.074L3.32783 120.034L14.4891 119.605L13.8348 117.85Z" fill="#9E845C"/>
<path d="M14.4833 123.98L7.48578 128.045L8.4399 129.683L15.4374 125.618L14.4833 123.98Z" fill="#9E845C"/>
<path d="M17.359 122.415C17.0505 122.321 16.7607 122.359 16.4803 122.517C16.1998 122.676 16.0222 122.919 15.9568 123.227C15.882 123.535 15.9381 123.843 16.1064 124.132C16.284 124.441 16.527 124.627 16.8355 124.711C17.144 124.795 17.4431 124.749 17.7329 124.581C18.004 124.422 18.1722 124.188 18.2283 123.89C18.2937 123.582 18.2377 123.283 18.06 122.984C17.9011 122.704 17.6674 122.508 17.359 122.415Z" fill="#9E845C"/>
<path d="M19.7613 132.441C19.3219 132.18 18.8545 132.04 18.3685 132.021L19.2004 131.386L18.1067 129.958L11.6754 134.859L12.8252 136.362L16.0782 133.879C16.7045 133.403 17.3028 133.197 17.8824 133.263C18.4619 133.328 18.9574 133.636 19.3874 134.196C19.7613 134.682 19.9109 135.167 19.8267 135.653C19.7426 136.138 19.4248 136.586 18.8639 137.016L15.3678 139.676L16.5176 141.179L20.2006 138.369C21.1354 137.66 21.6495 136.876 21.743 136.026C21.8459 135.177 21.5841 134.346 20.9672 133.533C20.6026 133.067 20.2006 132.703 19.7613 132.441Z" fill="#9E845C"/>
<path d="M29.025 142.43C28.4454 141.88 27.8098 141.516 27.0994 141.329C26.3983 141.142 25.6972 141.161 24.9961 141.366C24.295 141.572 23.678 141.964 23.1359 142.533C22.5844 143.112 22.2291 143.756 22.0609 144.466C21.8926 145.175 21.93 145.894 22.1824 146.613C22.4254 147.332 22.8741 148.004 23.5191 148.611C24.0239 149.087 24.5567 149.442 25.1083 149.666C25.6598 149.89 26.2207 149.964 26.7815 149.899L26.847 148.359C26.0244 148.387 25.2952 148.097 24.6502 147.481C24.1454 147.005 23.8463 146.473 23.7435 145.894C23.6407 145.315 23.7622 144.774 24.0894 144.27L28.6885 148.639C28.8661 148.48 29.0063 148.349 29.0998 148.256C29.67 147.658 30.0439 147.005 30.2309 146.314C30.4178 145.623 30.3991 144.932 30.1935 144.251C29.9878 143.569 29.5952 142.972 29.025 142.43ZM28.2772 146.529L24.9494 143.364C25.4261 143 25.9402 142.823 26.4917 142.851C27.0433 142.879 27.5387 143.103 27.978 143.523C28.4267 143.943 28.6698 144.428 28.7259 144.979C28.7726 145.53 28.623 146.043 28.2772 146.529Z" fill="#9E845C"/>
<path d="M37.812 149.656C36.924 149.021 36.0827 148.704 35.2974 148.713C34.5122 148.713 33.8953 149.031 33.4466 149.656C33.11 150.132 32.9698 150.59 33.0259 151.038C33.082 151.486 33.2503 151.878 33.512 152.233C33.7737 152.588 34.1477 152.989 34.6337 153.465C35.0918 153.913 35.4096 154.268 35.5779 154.529C35.7461 154.791 35.7461 155.034 35.5872 155.258C35.2413 155.743 34.6057 155.659 33.6896 154.996C33.2877 154.707 32.9231 154.361 32.5866 153.941C32.2594 153.531 32.0163 153.12 31.8574 152.709L30.4272 153.456C30.5768 153.885 30.8572 154.352 31.2685 154.856C31.6798 155.36 32.1472 155.799 32.6894 156.182C33.6055 156.835 34.4655 157.171 35.2694 157.181C36.064 157.19 36.6903 156.891 37.1296 156.275C37.4661 155.808 37.597 155.36 37.5409 154.931C37.4755 154.501 37.3166 154.119 37.0548 153.773C36.7931 153.428 36.4285 153.026 35.9611 152.569C35.5031 152.102 35.1759 151.729 34.9983 151.449C34.8207 151.169 34.8207 150.907 34.9983 150.655C35.1572 150.431 35.4003 150.338 35.7368 150.366C36.064 150.394 36.4566 150.571 36.9146 150.898C37.6157 151.393 38.1298 152.009 38.4477 152.737L39.8779 151.99C39.7096 151.607 39.4385 151.215 39.0646 150.786C38.6813 150.347 38.27 149.974 37.812 149.656Z" fill="#9E845C"/>
<path d="M48.2254 155.892C47.7206 155.64 47.2252 155.482 46.7391 155.426C46.253 155.379 45.7856 155.426 45.3556 155.584L47.2159 151.943L45.5239 151.085L40.4106 161.083L42.0933 161.942L43.9535 158.301C44.3087 157.601 44.7667 157.153 45.3183 156.966C45.8698 156.779 46.4587 156.845 47.0756 157.153C47.6272 157.433 47.9637 157.806 48.1039 158.282C48.2348 158.749 48.1413 159.3 47.8235 159.935L45.823 163.846L47.515 164.705L49.6183 160.579C50.1511 159.533 50.282 158.609 50.0015 157.797C49.7211 156.985 49.1322 156.359 48.2254 155.892Z" fill="#9E845C"/>
<path d="M61.4152 161.643C60.9011 161.111 60.2467 160.71 59.4521 160.458C58.6763 160.205 57.9191 160.149 57.1806 160.289C56.4515 160.43 55.8065 160.738 55.2643 161.223C54.7221 161.709 54.3295 162.325 54.0865 163.09C53.8434 163.856 53.7967 164.584 53.9556 165.303C54.1145 166.022 54.4511 166.638 54.9745 167.179C55.498 167.721 56.143 168.103 56.9189 168.356C57.7041 168.608 58.4706 168.664 59.1998 168.533C59.9289 168.393 60.5739 168.085 61.1161 167.599C61.6582 167.114 62.0508 166.488 62.2939 165.732C62.5369 164.976 62.5743 164.238 62.4154 163.529C62.2752 162.801 61.9387 162.175 61.4152 161.643ZM60.4898 165.125C60.2561 165.844 59.8541 166.358 59.2839 166.666C58.7137 166.974 58.0874 167.021 57.4237 166.806C56.76 166.591 56.2832 166.199 56.0028 165.62C55.713 165.041 55.685 164.388 55.9187 163.669C56.1524 162.95 56.5543 162.437 57.1152 162.129C57.6854 161.821 58.3024 161.774 58.9661 161.989C59.6298 162.203 60.1065 162.595 60.3963 163.174C60.6954 163.762 60.7234 164.407 60.4898 165.125Z" fill="#9E845C"/>
<path d="M74.3807 164.238C73.8198 163.809 73.1468 163.538 72.3709 163.417C71.8194 163.333 71.3052 163.351 70.8192 163.473C70.3331 163.594 69.9124 163.818 69.5479 164.154L69.7068 163.109L67.9213 162.838L66.2855 173.733L68.155 174.013L68.7346 170.138C69.2581 170.951 70.0526 171.436 71.137 171.595C71.9128 171.707 72.642 171.642 73.3057 171.399C73.9694 171.156 74.5209 170.745 74.9696 170.166C75.4089 169.597 75.6987 168.906 75.8109 168.094C75.9324 167.282 75.867 166.544 75.6052 165.872C75.3528 165.228 74.9415 164.677 74.3807 164.238ZM73.9133 167.833C73.8011 168.579 73.4926 169.149 72.9785 169.541C72.4644 169.933 71.8661 170.082 71.1744 169.97C70.7257 169.905 70.3331 169.737 70.0059 169.485C69.6787 169.224 69.4357 168.897 69.2861 168.477C69.1365 168.066 69.0898 167.609 69.1646 167.114C69.2394 166.619 69.4076 166.19 69.6787 165.844C69.9498 165.499 70.277 165.247 70.6602 165.097C71.0528 164.948 71.4735 164.901 71.9222 164.976C72.6139 165.079 73.1468 165.396 73.5207 165.919C73.8946 166.442 74.0255 167.086 73.9133 167.833Z" fill="#9E845C"/>
<path d="M96.7033 166.75L95.1328 166.404C95.0581 167.114 94.9272 167.721 94.7215 168.243L92.2257 166.302C92.9454 165.798 93.4502 165.312 93.7494 164.855C94.0391 164.397 94.1607 163.902 94.1046 163.361C94.0298 162.651 93.7213 162.11 93.1698 161.746C92.6183 161.382 91.9078 161.242 91.0572 161.326C90.1318 161.419 89.412 161.718 88.8978 162.231C88.3837 162.745 88.1687 163.37 88.2435 164.117C88.2809 164.509 88.4117 164.883 88.6267 165.228C88.8417 165.573 89.1876 165.938 89.6457 166.32C88.8324 166.89 88.2528 167.441 87.9257 167.973C87.5891 168.505 87.4583 169.102 87.5237 169.756C87.5798 170.297 87.7948 170.764 88.1687 171.156C88.5426 171.548 89.0381 171.838 89.6457 172.015C90.2533 172.192 90.9263 172.248 91.6554 172.183C93.0296 172.043 94.17 171.502 95.0674 170.559L96.5257 171.707L97.4417 170.381L95.9928 169.252C96.3574 168.542 96.5911 167.711 96.7033 166.75ZM90.2439 163.072C90.4683 162.838 90.7767 162.707 91.1974 162.661C91.5807 162.623 91.8891 162.679 92.1228 162.838C92.3565 162.997 92.4874 163.23 92.5248 163.548C92.5528 163.837 92.4594 164.117 92.2537 164.388C92.0387 164.659 91.6554 164.985 91.0852 165.377C90.6739 165.041 90.3935 164.771 90.2439 164.575C90.0944 164.369 90.0009 164.154 89.9822 163.912C89.9261 163.585 90.0196 163.305 90.2439 163.072ZM91.6367 170.633C90.9917 170.699 90.4589 170.615 90.0383 170.381C89.6176 170.148 89.3839 169.812 89.3465 169.373C89.3091 168.99 89.3933 168.636 89.6083 168.309C89.8233 167.982 90.2159 167.618 90.7861 167.226L93.8428 169.616C93.2539 170.204 92.5154 170.549 91.6367 170.633Z" fill="#9E845C"/>
<path d="M113.427 164.631L107.266 158.198L105.266 158.945L113.305 167.254L115.128 166.582L115.754 155.043L113.913 155.724L113.427 164.631Z" fill="#9E845C"/>
<path d="M120.671 153.306C120.765 152.998 120.737 152.7 120.578 152.401C120.428 152.121 120.204 151.953 119.905 151.878C119.605 151.803 119.297 151.85 118.998 152.009C118.689 152.168 118.493 152.401 118.39 152.7C118.287 152.998 118.306 153.297 118.456 153.577C118.605 153.857 118.839 154.044 119.138 154.128C119.447 154.212 119.755 154.175 120.054 154.016C120.372 153.848 120.568 153.615 120.671 153.306Z" fill="#9E845C"/>
<path d="M121.507 154.754L119.828 155.637L123.603 162.789L125.281 161.905L121.507 154.754Z" fill="#9E845C"/>
<path d="M132.178 148.891C131.328 148.76 130.486 148.984 129.654 149.563C129.168 149.908 128.785 150.291 128.505 150.721C128.224 151.15 128.065 151.607 128.018 152.093L127.42 151.234L125.943 152.27L130.58 158.889L132.132 157.806L129.785 154.455C129.337 153.811 129.15 153.204 129.243 152.625C129.337 152.046 129.664 151.561 130.234 151.169C130.739 150.814 131.234 150.693 131.711 150.795C132.188 150.898 132.636 151.234 133.038 151.813L135.562 155.407L137.114 154.324L134.459 150.534C133.786 149.572 133.02 149.031 132.178 148.891Z" fill="#9E845C"/>
<path d="M144.742 144.298C144.732 145.119 144.415 145.838 143.77 146.454C143.265 146.94 142.732 147.22 142.152 147.294C141.573 147.369 141.031 147.229 140.545 146.884L145.106 142.477C144.947 142.29 144.826 142.15 144.742 142.057C144.162 141.46 143.536 141.058 142.844 140.853C142.152 140.647 141.47 140.629 140.778 140.806C140.087 140.983 139.46 141.348 138.899 141.898C138.329 142.449 137.937 143.075 137.722 143.775C137.507 144.475 137.497 145.166 137.675 145.875C137.852 146.575 138.217 147.21 138.769 147.78C139.32 148.349 139.956 148.741 140.657 148.937C141.358 149.133 142.078 149.124 142.807 148.909C143.536 148.695 144.228 148.275 144.863 147.658C145.368 147.173 145.733 146.66 145.985 146.118C146.237 145.577 146.331 145.016 146.294 144.456L144.742 144.298ZM139.208 144.438C139.264 143.887 139.507 143.401 139.937 142.981C140.376 142.552 140.872 142.328 141.423 142.3C141.975 142.272 142.48 142.44 142.947 142.804L139.647 145.997C139.301 145.502 139.152 144.979 139.208 144.438Z" fill="#9E845C"/>
<path d="M149.322 129.883L148.21 131.321L151.388 136.997L145.097 135.363L143.891 136.923L152.482 139.088L152.65 139.387C152.856 139.779 152.968 140.115 152.968 140.386C152.968 140.666 152.874 140.927 152.669 141.198C152.51 141.394 152.323 141.562 152.089 141.702C151.855 141.842 151.622 141.926 151.369 141.964L152.014 143.411C152.351 143.355 152.697 143.205 153.043 142.972C153.388 142.739 153.688 142.468 153.931 142.15C154.37 141.581 154.604 140.993 154.622 140.377C154.65 139.761 154.417 139.042 153.94 138.23L149.322 129.883Z" fill="#9E845C"/>
<path d="M154.763 122.172C153.959 122.443 153.258 123.096 152.669 124.133C152.342 124.711 152.108 125.3 151.958 125.906C151.809 126.513 151.781 127.073 151.855 127.605L153.426 127.633C153.351 127.241 153.37 126.831 153.463 126.373C153.557 125.925 153.716 125.496 153.94 125.104C154.267 124.525 154.65 124.161 155.08 124.011C155.51 123.862 155.968 123.937 156.464 124.207L156.567 124.263L155.538 126.084C154.968 127.092 154.744 127.942 154.856 128.623C154.968 129.314 155.352 129.827 155.978 130.191C156.38 130.416 156.81 130.518 157.249 130.481C157.688 130.444 158.118 130.285 158.52 129.986C158.922 129.697 159.278 129.286 159.577 128.754C159.876 128.231 160.044 127.727 160.1 127.269C160.156 126.812 160.072 126.383 159.885 126.009L160.745 126.495L161.624 124.935L157.492 122.602C156.483 122.051 155.576 121.901 154.763 122.172ZM158.474 125.356C158.754 125.682 158.894 126.065 158.904 126.495C158.913 126.924 158.801 127.344 158.567 127.755C158.333 128.175 158.053 128.455 157.745 128.595C157.436 128.735 157.128 128.716 156.828 128.548C156.202 128.194 156.165 127.549 156.698 126.597L157.66 124.898L158.474 125.356Z" fill="#9E845C"/>
<path d="M159.754 114.928C159.511 114.386 159.53 113.77 159.801 113.088C159.848 112.967 159.923 112.836 160.007 112.696L158.333 112.024C157.819 113.294 157.857 114.349 158.436 115.17L157.343 114.732L156.67 116.403L164.176 119.418L164.886 117.663L161.25 116.197C160.493 115.889 159.997 115.469 159.754 114.928Z" fill="#9E845C"/>
<path d="M169.551 102.446L158.642 99.7198L158.184 101.559L162.213 102.567C161.783 102.782 161.428 103.081 161.138 103.473C160.857 103.856 160.642 104.313 160.512 104.826C160.325 105.583 160.315 106.301 160.502 106.983C160.68 107.664 161.035 108.262 161.558 108.757C162.082 109.252 162.736 109.597 163.531 109.793C164.325 109.989 165.073 109.998 165.765 109.802C166.466 109.616 167.055 109.261 167.541 108.738C168.027 108.215 168.364 107.58 168.551 106.834C168.682 106.292 168.719 105.779 168.644 105.284C168.569 104.789 168.382 104.35 168.093 103.949L169.102 104.201L169.551 102.446ZM167.036 106.217C166.924 106.656 166.728 107.03 166.438 107.328C166.148 107.627 165.793 107.842 165.372 107.954C164.952 108.066 164.494 108.057 163.998 107.935C163.512 107.814 163.101 107.599 162.783 107.3C162.465 107.002 162.241 106.647 162.129 106.245C162.017 105.844 162.017 105.424 162.129 104.985C162.241 104.546 162.437 104.173 162.727 103.874C163.017 103.575 163.372 103.37 163.793 103.249C164.213 103.137 164.671 103.137 165.167 103.267C165.653 103.389 166.064 103.603 166.382 103.902C166.7 104.201 166.924 104.556 167.036 104.957C167.148 105.349 167.148 105.779 167.036 106.217Z" fill="#9E845C"/>
<path d="M165.419 80.0962C164.83 65.1031 160.1 50.5675 151.743 38.0764L150.192 39.1127C158.362 51.3237 162.979 65.5232 163.559 80.1709L165.419 80.0962Z" fill="#9E845C"/>
<path d="M20.8082 39.1594L19.3032 38.0485C10.1704 50.3155 4.69255 64.8511 3.46799 80.0869L5.3282 80.2363C6.53407 65.3553 11.881 51.1464 20.8082 39.1594Z" fill="#9E845C"/>
</svg>
