<svg width="88" height="96" viewBox="0 0 88 96" fill="none" xmlns="http://www.w3.org/2000/svg">
<path d="M65.9436 95.3727C65.806 95.3738 65.6705 95.3379 65.5513 95.269C65.4322 95.2 65.3337 95.1004 65.2661 94.9805C65.2151 94.8915 65.1821 94.7934 65.169 94.6917C65.156 94.59 65.1631 94.4867 65.19 94.3878C65.2169 94.2888 65.2632 94.1961 65.326 94.1151C65.3887 94.034 65.4668 93.966 65.5558 93.9152L75.1969 88.4105L68.2748 76.2956C62.9618 76.566 57.6367 76.4781 52.3356 76.0327C46.9557 75.5869 39.8241 72.3198 36.4277 59.3937C34.6136 52.485 32.8217 40.8292 32.8039 40.7134C32.7791 40.5578 32.8026 40.3983 32.8711 40.2565C32.9396 40.1147 33.0499 39.9972 33.1872 39.9199L44.6468 33.3678C44.7347 33.2995 44.8362 33.2508 44.9444 33.2249C45.0527 33.1991 45.1652 33.1967 45.2745 33.218C45.3838 33.2392 45.4872 33.2837 45.5779 33.3482C45.6686 33.4128 45.7444 33.496 45.8002 33.5923C45.856 33.6886 45.8907 33.7957 45.9017 33.9065C45.9127 34.0172 45.8999 34.1291 45.8641 34.2345C45.8283 34.3399 45.7704 34.4364 45.6942 34.5175C45.618 34.5987 45.5253 34.6626 45.4224 34.7049L34.4264 40.9897C34.7963 43.3387 36.3608 52.9842 37.9386 58.9792C39.6859 65.6294 43.6261 73.7149 52.4649 74.4592C57.8487 74.9222 63.2588 74.9996 68.6537 74.691C68.8003 74.6797 68.9472 74.7101 69.0773 74.7788C69.2074 74.8474 69.3155 74.9514 69.3891 75.0788L76.9575 88.3124C77.06 88.4923 77.0872 88.7054 77.0332 88.9052C76.9776 89.1043 76.8465 89.2738 76.6678 89.3777L66.3492 95.2702C66.2258 95.3407 66.0856 95.3761 65.9436 95.3727Z" fill="#AF6900" stroke="#AF6900" stroke-width="0.543652"/>
<path d="M68.7116 76.2648C68.5524 76.2655 68.3967 76.2173 68.2659 76.1266C68.0963 76.0079 67.9805 75.8269 67.9438 75.6232C67.907 75.4195 67.9524 75.2095 68.0698 75.039C71.076 70.5487 73.7572 65.8492 76.0928 60.9764C79.9395 52.98 74.974 45.483 70.1334 40.6023C65.7698 36.2029 58.2548 29.9583 56.4184 28.4428L45.4224 34.7231C45.2479 34.7949 45.0534 34.801 44.8747 34.7404C44.6961 34.6797 44.5454 34.5564 44.4508 34.3932C44.3561 34.23 44.3239 34.038 44.3599 33.8528C44.3959 33.6676 44.4979 33.5017 44.6469 33.3859L56.1109 26.8382C56.2489 26.7573 56.4084 26.7207 56.5678 26.7334C56.7273 26.7462 56.879 26.8077 57.0024 26.9095C57.096 26.9853 66.2244 34.4468 71.2656 39.5191C80.6793 49.0131 79.8636 56.8044 77.5058 61.6717C75.1375 66.6165 72.4144 71.3833 69.3579 75.9349C69.2855 76.0387 69.1886 76.1231 69.0759 76.1806C68.9632 76.2381 68.8381 76.267 68.7116 76.2648Z" fill="#AF6900" stroke="#AF6900" stroke-width="0.543652"/>
<path d="M76.2621 89.4801C76.09 89.4803 75.9226 89.4236 75.786 89.3188C75.6495 89.214 75.5514 89.067 75.5071 88.9006C75.4629 88.7342 75.4749 88.5579 75.5413 88.3991C75.6077 88.2402 75.7249 88.1078 75.8744 88.0225L86.1929 82.1256C86.2808 82.0573 86.3823 82.0086 86.4905 81.9827C86.5988 81.9569 86.7114 81.9545 86.8207 81.9758C86.9299 81.9971 87.0334 82.0415 87.1241 82.106C87.2147 82.1706 87.2905 82.2538 87.3464 82.3501C87.4022 82.4464 87.4368 82.5535 87.4478 82.6643C87.4588 82.775 87.446 82.8869 87.4102 82.9923C87.3744 83.0977 87.3165 83.1942 87.2403 83.2753C87.1641 83.3565 87.0714 83.4204 86.9685 83.4628L76.6499 89.3597C76.5327 89.4313 76.3994 89.4727 76.2621 89.4801Z" fill="#AF6900" stroke="#AF6900" stroke-width="0.543652"/>
<path d="M13.5218 40.7581C13.4079 40.7585 13.2954 40.7342 13.1919 40.6868C13.0989 40.6441 13.0153 40.5834 12.9458 40.5082C12.8763 40.433 12.8223 40.3448 12.7871 40.2486C12.7519 40.1525 12.7361 40.0503 12.7405 39.948C12.745 39.8458 12.7697 39.7454 12.8131 39.6527C13.9453 37.2056 16.4814 35.8997 18.5629 35.0305L19.5035 34.6516C21.3532 33.9028 23.1049 33.1986 24.4065 31.897C25.0604 31.2213 25.5587 30.4109 25.8667 29.5224C26.1747 28.6339 26.2848 27.6889 26.1894 26.7534C26.0022 24.9705 24.9993 23.7492 23.8359 22.3541L23.1985 21.5829C22.1822 20.3126 21.1749 18.9977 20.2032 17.7274C19.5257 16.836 18.8661 15.9445 18.1663 15.0887L7.54015 1.53419C7.47694 1.45341 7.43021 1.36097 7.40271 1.26215C7.37522 1.16334 7.36755 1.06007 7.37997 0.958248C7.39239 0.85643 7.42464 0.758063 7.47508 0.668747C7.52552 0.579431 7.59312 0.500925 7.67389 0.437709C7.75467 0.374493 7.84712 0.327803 7.94594 0.30031C8.04476 0.272818 8.14795 0.265055 8.24977 0.277472C8.35159 0.289889 8.45002 0.32224 8.53934 0.372676C8.62865 0.423111 8.70715 0.490645 8.77036 0.571421L19.3876 14.1304C20.074 15.0219 20.7514 15.9133 21.4334 16.778C22.4006 18.0439 23.3991 19.3499 24.4065 20.6024L25.026 21.3556C26.2428 22.8131 27.4953 24.3197 27.7316 26.5885C27.8496 27.7533 27.7113 28.9299 27.3263 30.0356C26.9413 31.1414 26.3189 32.1494 25.5029 32.9891C23.9964 34.5268 22.0084 35.3247 20.0918 36.1091L19.1647 36.488C17.3462 37.2413 15.1532 38.3645 14.2305 40.3213C14.1666 40.4543 14.0658 40.5661 13.9402 40.6435C13.8146 40.7209 13.6693 40.7607 13.5218 40.7581Z" fill="#AF6900" stroke="#AF6900" stroke-width="0.543652"/>
<path d="M5.77505 35.9042C5.31546 35.9038 4.85754 35.8484 4.4111 35.7393C3.61906 35.5456 2.88077 35.176 2.25114 34.6579C1.62151 34.1398 1.11669 33.4865 0.77413 32.7466C0.431566 32.0066 0.260154 31.199 0.27247 30.3837C0.284787 29.5684 0.480539 28.7664 0.845298 28.0371C0.88837 27.9413 0.950394 27.8552 1.02757 27.7839C1.10475 27.7126 1.19546 27.6577 1.2944 27.6223C1.39333 27.587 1.49836 27.572 1.60323 27.5783C1.70809 27.5846 1.81064 27.612 1.90466 27.6588C1.99868 27.7057 2.08234 27.771 2.15048 27.851C2.21862 27.931 2.26984 28.0239 2.3012 28.1241C2.33255 28.2244 2.34331 28.33 2.33286 28.4345C2.32242 28.539 2.29105 28.6404 2.24048 28.7325C1.97919 29.2521 1.8385 29.824 1.82903 30.4056C1.81956 30.9871 1.94151 31.5633 2.18574 32.0912C2.42997 32.619 2.79017 33.085 3.23955 33.4542C3.68893 33.8235 4.21589 34.0866 4.78109 34.2238C7.00972 34.7676 9.31406 33.3323 11.2886 31.8392C13.4771 30.1944 15.9375 28.3402 18.866 28.5943C18.9681 28.6031 19.0676 28.6319 19.1586 28.6791C19.2496 28.7263 19.3303 28.7909 19.3963 28.8694C19.4624 28.9478 19.5123 29.0385 19.5433 29.1362C19.5742 29.2339 19.5857 29.3368 19.5769 29.4389C19.5681 29.5411 19.5393 29.6405 19.4921 29.7315C19.4449 29.8225 19.3803 29.9033 19.3019 29.9693C19.2235 30.0354 19.1328 30.0853 19.0351 30.1162C18.9373 30.1472 18.8345 30.1586 18.7323 30.1499C16.4146 29.9493 14.3063 31.5405 12.2559 33.0783C10.3259 34.518 8.11511 35.9042 5.77505 35.9042Z" fill="#AF6900" stroke="#AF6900" stroke-width="0.543652"/>
<path d="M43.4924 60.5349C43.3311 60.5342 43.1739 60.4837 43.0423 60.3904C42.9107 60.2971 42.8111 60.1655 42.757 60.0134C40.359 53.2741 38.6697 43.584 38.6563 43.4859C38.6209 43.282 38.6678 43.0724 38.7869 42.9031C38.906 42.7338 39.0876 42.6188 39.2915 42.5833C39.4954 42.5479 39.7051 42.5949 39.8743 42.714C40.0436 42.8331 40.1586 43.0146 40.1941 43.2185C40.1941 43.3166 41.8745 52.8774 44.2279 59.492C44.268 59.6098 44.2796 59.7354 44.2619 59.8586C44.2441 59.9818 44.1974 60.099 44.1257 60.2007C44.054 60.3024 43.9593 60.3857 43.8492 60.4438C43.7391 60.5019 43.6168 60.5331 43.4924 60.5349Z" fill="#AF6900" stroke="#AF6900" stroke-width="0.543652"/>
<path d="M44.9143 68.8611C43.3243 68.8631 41.7456 68.5918 40.2475 68.0588C40.0723 68.0004 39.9236 67.8817 39.8278 67.7238C39.7319 67.566 39.6951 67.3793 39.7239 67.1969C39.7528 67.0145 39.8455 66.8482 39.9854 66.7278C40.1254 66.6073 40.3035 66.5404 40.4882 66.5389C40.5778 66.5381 40.6669 66.5532 40.7512 66.5835C42.3793 67.1723 44.1144 67.4061 45.8403 67.2693C47.5661 67.1324 49.2428 66.6281 50.7577 65.7901C53.1959 64.3949 55.01 62.251 56.9311 59.9956C58.1815 58.4414 59.5462 56.9828 61.0139 55.632C64.2395 52.8176 68.2758 51.1007 72.5404 50.729C74.3626 50.5787 76.1968 50.6792 77.9916 51.0276C78.0923 51.0469 78.1882 51.0859 78.2738 51.1423C78.3594 51.1987 78.433 51.2713 78.4906 51.3562C78.5481 51.441 78.5884 51.5364 78.6091 51.6368C78.6298 51.7372 78.6305 51.8407 78.6111 51.9414C78.5918 52.0421 78.5529 52.1379 78.4966 52.2235C78.4402 52.3092 78.3675 52.3829 78.2826 52.4404C78.1978 52.4979 78.1024 52.5382 78.002 52.5589C77.9016 52.5795 77.7981 52.5802 77.6974 52.5609C76.0437 52.2377 74.3532 52.1447 72.674 52.2846C68.741 52.6262 65.0184 54.209 62.0435 56.8042C60.637 58.1065 59.3275 59.5098 58.1256 61.003C56.2001 63.2762 54.2121 65.6296 51.5378 67.1629C49.5144 68.2934 47.232 68.8786 44.9143 68.8611Z" fill="#AF6900" stroke="#AF6900" stroke-width="0.543652"/>
</svg>
