<svg width="70" height="100" viewBox="0 0 70 100" fill="none" xmlns="http://www.w3.org/2000/svg">
<path d="M26.4484 99.082H1.06189C0.84656 99.082 0.640002 98.9965 0.487744 98.8442C0.335486 98.6919 0.25 98.4854 0.25 98.2701V54.753C0.249981 54.6446 0.272032 54.5372 0.314901 54.4376L8.62857 34.66V1.06189C8.62857 0.84656 8.71417 0.640059 8.86643 0.4878C9.01869 0.335542 9.22513 0.25 9.44046 0.25H18.0743C18.2897 0.25 18.4962 0.335542 18.6485 0.4878C18.8007 0.640059 18.8862 0.84656 18.8862 1.06189V34.66L27.1999 54.4376C27.2428 54.5372 27.2649 54.6446 27.2649 54.753V98.2887C27.26 98.5016 27.1717 98.704 27.019 98.8524C26.8663 99.0008 26.6613 99.0833 26.4484 99.082ZM1.85984 97.4582H25.6226V54.9154L17.3089 35.1379C17.266 35.0382 17.2439 34.9309 17.2439 34.8224V1.88304H10.2385V34.8224C10.2385 34.9309 10.2164 35.0382 10.1735 35.1379L1.85984 54.9154V97.4582Z" fill="#AF6900" stroke="#AF6900" stroke-width="0.5"/>
<path d="M52.7024 99.0822H43.5907C43.3754 99.0822 43.1689 98.9967 43.0166 98.8444C42.8643 98.6922 42.7789 98.4856 42.7789 98.2703C42.7789 98.055 42.8643 97.8485 43.0166 97.6962C43.1689 97.544 43.3754 97.4584 43.5907 97.4584H51.9137V75.4215C48.2976 73.5869 44.8087 71.5115 41.4705 69.2095C37.9957 66.8156 34.4188 61.8561 37.1142 51.8166C38.5385 46.5045 41.7907 38.033 41.8231 37.9495C41.8815 37.7964 41.9851 37.6647 42.1202 37.5719C42.2553 37.479 42.4155 37.4295 42.5794 37.4299H52.7256C52.9409 37.4299 53.1475 37.5155 53.2997 37.6677C53.452 37.82 53.5375 38.0265 53.5375 38.2418C53.5375 38.4571 53.452 38.6636 53.2997 38.8159C53.1475 38.9682 52.9409 39.0537 52.7256 39.0537H43.1268C42.4031 40.9698 39.8792 47.7618 38.6684 52.2387C37.3183 57.2724 36.8636 64.0737 42.3798 67.8733C45.7815 70.2285 49.3475 72.337 53.0503 74.1828C53.1898 74.2477 53.3076 74.3513 53.3899 74.4813C53.4721 74.6112 53.5153 74.7621 53.5143 74.9158V98.3028C53.5059 98.5124 53.4167 98.7107 53.2653 98.856C53.1139 99.0013 52.9122 99.0824 52.7024 99.0822Z" fill="#AF6900" stroke="#AF6900" stroke-width="0.5"/>
<path d="M52.7023 75.7136C52.5182 75.7133 52.3396 75.6505 52.1959 75.5354C52.0522 75.4203 51.9519 75.2597 51.9114 75.0801C51.8709 74.9004 51.8928 74.7124 51.9732 74.5468C52.0537 74.3812 52.1881 74.2478 52.3544 74.1687C56.0564 72.3212 59.6222 70.2128 63.0249 67.8592C68.5364 64.0595 68.0864 57.2583 66.7364 52.2246C65.5348 47.7476 63.0249 40.9556 62.278 39.0395H52.6977C52.4824 39.0395 52.2759 38.954 52.1237 38.8017C51.9714 38.6495 51.8858 38.443 51.8858 38.2277C51.8858 38.0123 51.9714 37.8058 52.1237 37.6536C52.2759 37.5013 52.4824 37.4158 52.6977 37.4158H62.8393C63.0039 37.4151 63.1648 37.4644 63.3007 37.5572C63.4366 37.65 63.5409 37.7819 63.6002 37.9354C63.6326 38.0189 66.8802 46.4903 68.3045 51.8024C71 61.8419 67.423 66.806 63.9527 69.1953C60.4746 71.5981 56.8297 73.7501 53.0456 75.6347C52.9378 75.6843 52.821 75.7112 52.7023 75.7136Z" fill="#AF6900" stroke="#AF6900" stroke-width="0.5"/>
<path d="M61.8326 99.082H52.7023C52.487 99.082 52.2806 98.9965 52.1283 98.8442C51.976 98.692 51.8904 98.4855 51.8904 98.2701C51.8904 98.0548 51.976 97.8483 52.1283 97.6961C52.2806 97.5438 52.487 97.4583 52.7023 97.4583H61.8326C62.048 97.4583 62.2544 97.5438 62.4067 97.6961C62.5589 97.8483 62.6445 98.0548 62.6445 98.2701C62.6445 98.4855 62.5589 98.692 62.4067 98.8442C62.2544 98.9965 62.048 99.082 61.8326 99.082Z" fill="#AF6900" stroke="#AF6900" stroke-width="0.5"/>
<path d="M18.0743 11.8621H6.0769C5.86157 11.8621 5.65513 11.7765 5.50287 11.6243C5.35061 11.472 5.26501 11.2655 5.26501 11.0502C5.26501 10.8348 5.35061 10.6283 5.50287 10.4761C5.65513 10.3238 5.86157 10.2383 6.0769 10.2383H18.0743C18.2896 10.2383 18.4962 10.3238 18.6484 10.4761C18.8007 10.6283 18.8862 10.8348 18.8862 11.0502C18.8862 11.2655 18.8007 11.472 18.6484 11.6243C18.4962 11.7765 18.2896 11.8621 18.0743 11.8621Z" fill="#AF6900" stroke="#AF6900" stroke-width="0.5"/>
<path d="M6.17913 90.7592C5.96381 90.7592 5.75725 90.6736 5.60499 90.5214C5.45273 90.3691 5.36725 90.1626 5.36725 89.9473V67.1774C5.36725 66.962 5.45273 66.7555 5.60499 66.6033C5.75725 66.451 5.96381 66.3655 6.17913 66.3655C6.39446 66.3655 6.6009 66.451 6.75316 66.6033C6.90542 66.7555 6.99102 66.962 6.99102 67.1774V89.9473C6.99102 90.1626 6.90542 90.3691 6.75316 90.5214C6.6009 90.6736 6.39446 90.7592 6.17913 90.7592Z" fill="#AF6900" stroke="#AF6900" stroke-width="0.5"/>
<path d="M41.9763 59.1511C41.7609 59.1511 41.5544 59.0656 41.4021 58.9133C41.2499 58.7611 41.1644 58.5546 41.1644 58.3393C41.1644 53.4819 44.9315 43.5258 45.0939 43.1037C45.1708 42.9025 45.3245 42.7401 45.5211 42.6522C45.7177 42.5643 45.9412 42.5582 46.1424 42.6351C46.3436 42.712 46.506 42.8656 46.5939 43.0623C46.6817 43.2589 46.6879 43.4824 46.611 43.6836C46.5738 43.781 42.7881 53.7788 42.7881 58.3393C42.7881 58.5546 42.7025 58.7611 42.5503 58.9133C42.398 59.0656 42.1916 59.1511 41.9763 59.1511Z" fill="#AF6900" stroke="#AF6900" stroke-width="0.5"/>
</svg>
