<svg width="81" height="90" viewBox="0 0 81 90" fill="none" xmlns="http://www.w3.org/2000/svg">
<path d="M23.8601 89.3209H0.986467C0.792455 89.3209 0.606342 89.2438 0.469155 89.1066C0.331968 88.9694 0.254944 88.7834 0.254944 88.5894V49.363C0.254927 49.2653 0.274795 49.1686 0.313421 49.0788L7.80418 31.2589V0.986406C7.80418 0.792394 7.88131 0.606332 8.0185 0.469145C8.15568 0.331958 8.34169 0.254883 8.5357 0.254883H16.3066C16.5006 0.254883 16.6867 0.331958 16.8239 0.469145C16.9611 0.606332 17.0381 0.792394 17.0381 0.986406V31.2589L24.5289 49.0788C24.5675 49.1686 24.5875 49.2653 24.5875 49.363V88.5894C24.5875 88.7827 24.511 88.9681 24.3747 89.1051C24.2384 89.2422 24.0534 89.3198 23.8601 89.3209ZM1.70544 87.8578H23.1161V49.5177L15.6253 31.6978C15.5871 31.6079 15.5672 31.5112 15.5667 31.4135V1.73461H9.25467V31.4135C9.25423 31.5112 9.23438 31.6079 9.1962 31.6978L1.71799 49.5177L1.70544 87.8578Z" fill="#AF6900" stroke="#AF6900" stroke-width="0.509851"/>
<path d="M5.597 81.8045C5.40299 81.8045 5.21698 81.7275 5.07979 81.5903C4.9426 81.4531 4.86548 81.267 4.86548 81.073V60.557C4.86548 60.363 4.9426 60.1769 5.07979 60.0397C5.21698 59.9025 5.40299 59.8254 5.597 59.8254C5.79101 59.8254 5.97713 59.9025 6.11431 60.0397C6.2515 60.1769 6.32852 60.363 6.32852 60.557V81.073C6.32852 81.267 6.2515 81.4531 6.11431 81.5903C5.97713 81.7275 5.79101 81.8045 5.597 81.8045Z" fill="#AF6900" stroke="#AF6900" stroke-width="0.509851"/>
<path d="M48.1634 85.358C40.7161 85.3532 33.5015 82.7632 27.7517 78.0302C27.6776 77.969 27.6164 77.8938 27.5713 77.8089C27.5263 77.724 27.4984 77.631 27.4893 77.5353C27.4801 77.4397 27.49 77.3432 27.5181 77.2513C27.5463 77.1594 27.5924 77.0739 27.6536 76.9998C27.7148 76.9257 27.79 76.8644 27.8749 76.8193C27.9598 76.7743 28.0528 76.7464 28.1484 76.7373C28.2441 76.7282 28.3407 76.738 28.4326 76.7662C28.5244 76.7944 28.6099 76.8404 28.684 76.9016C33.439 80.8187 39.2649 83.2105 45.4006 83.7647C51.5362 84.3188 57.6964 83.0095 63.0763 80.0078C68.4562 77.0061 72.8057 72.4515 75.5565 66.9391C78.3073 61.4267 79.3316 55.2128 78.4955 49.1091C77.6594 43.0055 75.0018 37.2959 70.87 32.7263C66.7381 28.1567 61.324 24.9395 55.3351 23.4951C49.3462 22.0507 43.0608 22.4463 37.3001 24.63C31.5395 26.8137 26.5715 30.6842 23.045 35.7357C22.9342 35.8942 22.7648 36.0022 22.5743 36.0359C22.3839 36.0696 22.1877 36.0263 22.0292 35.9154C21.8706 35.8045 21.7626 35.6353 21.7289 35.4448C21.6952 35.2543 21.7386 35.0582 21.8495 34.8996C25.0069 30.3761 29.2771 26.7429 34.2479 24.3506C39.2187 21.9584 44.7223 20.888 50.2274 21.2427C55.7325 21.5974 61.0532 23.3652 65.6759 26.3755C70.2987 29.3859 74.0673 33.537 76.6181 38.4284C79.169 43.3197 80.4158 48.786 80.2383 54.2997C80.0608 59.8133 78.465 65.1881 75.6049 69.9053C72.7447 74.6224 68.7169 78.5226 63.9101 81.2294C59.1033 83.9362 53.6799 85.3581 48.1634 85.358Z" fill="#AF6900" stroke="#AF6900" stroke-width="0.509851"/>
<path d="M49.8228 56.2684H32.4419C32.2479 56.2684 32.0618 56.1913 31.9246 56.0541C31.7874 55.9169 31.7104 55.7309 31.7104 55.5368C31.7104 55.3428 31.7874 55.1568 31.9246 55.0196C32.0618 54.8824 32.2479 54.8053 32.4419 54.8053H49.0913V34.377C49.0913 34.183 49.1684 33.997 49.3056 33.8598C49.4428 33.7226 49.6288 33.6455 49.8228 33.6455C50.0168 33.6455 50.2029 33.7226 50.3401 33.8598C50.4773 33.997 50.5543 34.183 50.5543 34.377V55.5368C50.5543 55.7309 50.4773 55.9169 50.3401 56.0541C50.2029 56.1913 50.0168 56.2684 49.8228 56.2684Z" fill="#AF6900" stroke="#AF6900" stroke-width="0.509851"/>
</svg>
