<svg width="94" height="71" viewBox="0 0 94 71" fill="none" xmlns="http://www.w3.org/2000/svg">
<path d="M47.2357 70.5374C47.0796 70.5367 46.9274 70.4885 46.7993 70.3992C46.6711 70.3099 46.5733 70.1838 46.5186 70.0375C46.1708 69.0595 45.8665 68.0684 45.6144 67.06C42.7064 59.0316 36.3342 52.2376 27.7494 48.1256C27.6531 48.0866 27.5658 48.0283 27.4929 47.9543C27.42 47.8803 27.363 47.7921 27.3255 47.6953C27.288 47.5984 27.2708 47.4949 27.2748 47.3911C27.2788 47.2873 27.304 47.1854 27.3489 47.0917C27.3938 46.998 27.4575 46.9145 27.5359 46.8464C27.6143 46.7783 27.7058 46.7269 27.8048 46.6955C27.9038 46.6641 28.0082 46.6532 28.1116 46.6637C28.2149 46.6742 28.315 46.7057 28.4057 46.7564C35.517 50.1599 41.1764 55.3412 44.7277 61.5353C44.2451 55.4472 45.5073 49.3478 48.3665 43.9512C51.2256 38.5547 55.5633 34.0847 60.8715 31.0646C60.9572 30.998 61.0562 30.9505 61.1617 30.9253C61.2673 30.9001 61.3771 30.8978 61.4836 30.9186C61.5902 30.9393 61.6911 30.9826 61.7795 31.0456C61.8679 31.1086 61.9418 31.1897 61.9963 31.2836C62.0507 31.3775 62.0846 31.482 62.0953 31.59C62.106 31.698 62.0935 31.8071 62.0586 31.9098C62.0237 32.0126 61.9672 32.1068 61.8929 32.1859C61.8186 32.2651 61.7282 32.3273 61.6278 32.3687C55.792 35.694 51.2078 40.8417 48.5784 47.0223C45.9489 53.203 45.4193 60.0756 47.0706 66.5862C47.4183 67.5642 47.7227 68.5596 47.9748 69.568C48.021 69.7569 47.9931 69.9563 47.8969 70.1252C47.8007 70.2942 47.6434 70.4199 47.4574 70.4765C47.3877 70.5097 47.3126 70.5303 47.2357 70.5374Z" fill="#AF6900" stroke="#AF6900" stroke-width="0.5"/>
<path d="M36.182 52.6071C35.836 52.6078 35.4904 52.5845 35.1475 52.5375C35.0431 52.5315 34.941 52.5039 34.8476 52.4565C34.7543 52.4092 34.6719 52.3432 34.6053 52.2625C34.5387 52.1818 34.4893 52.0882 34.4605 51.9876C34.4317 51.887 34.424 51.7816 34.4378 51.6779C34.4516 51.5742 34.4865 51.4744 34.5406 51.3849C34.5947 51.2953 34.6668 51.2179 34.7521 51.1574C34.8375 51.0969 34.9344 51.0547 35.0369 51.0334C35.1393 51.0121 35.2451 51.0122 35.3475 51.0336C36.5957 51.1802 37.8605 50.9917 39.0117 50.4875C40.163 49.9833 41.1593 49.1815 41.898 48.1647C42.0195 48.0163 42.1925 47.9194 42.3825 47.8931C42.5724 47.8669 42.7653 47.9134 42.9224 48.0233C43.0796 48.1332 43.1894 48.2983 43.23 48.4858C43.2705 48.6732 43.2388 48.869 43.1412 49.034C42.3427 50.1337 41.2967 51.0301 40.0878 51.6508C38.8789 52.2715 37.5409 52.5991 36.182 52.6071Z" fill="#AF6900" stroke="#AF6900" stroke-width="0.5"/>
<path d="M20.951 68.0681C19.994 68.0679 19.0392 67.9762 18.0996 67.7942C17.9344 67.7619 17.7846 67.6756 17.6736 67.5489C17.5627 67.4223 17.497 67.2625 17.4867 67.0944C17.3111 64.5324 17.7976 61.9682 18.8994 59.6485C15.6089 60.9264 12.4705 61.1046 9.54516 60.1744C7.57284 59.5448 5.74414 58.5323 4.16363 57.1949C2.58312 55.8576 1.28187 54.2216 0.33445 52.3807C0.267124 52.2505 0.239135 52.1035 0.253797 51.9577C0.26846 51.8118 0.325115 51.6734 0.417012 51.5592C2.50779 48.9511 4.45077 46.8734 7.13705 45.1347C8.9321 43.938 11.0126 43.239 13.166 43.1091C10.6458 41.1056 8.63257 38.5369 7.28923 35.611C5.46189 31.5835 5.03496 27.0603 6.07647 22.762C6.11154 22.6204 6.18614 22.4917 6.29158 22.3909C6.39702 22.2901 6.529 22.2213 6.67203 22.1926C10.4667 21.458 14.9308 22.2143 18.9516 24.2704C22.6777 26.1849 25.6577 29.2889 27.419 33.0899C27.5037 33.2732 27.5122 33.4827 27.4425 33.6722C27.3728 33.8617 27.2307 34.0158 27.0474 34.1005C26.8641 34.1852 26.6546 34.1937 26.4651 34.124C26.2755 34.0543 26.1214 33.9122 26.0367 33.7289C24.4199 30.2359 21.6831 27.3828 18.2604 25.6222C14.7135 23.8096 10.8058 23.0837 7.44576 23.6053C6.62897 27.4307 7.05846 31.4171 8.67146 34.9807C10.3858 38.7283 13.2888 41.8055 16.9303 43.7351C17.1028 43.8252 17.2343 43.9781 17.2976 44.1622C17.3608 44.3463 17.3511 44.5478 17.2703 44.7249C17.1895 44.9021 17.0438 45.0415 16.8633 45.1145C16.6828 45.1875 16.4812 45.1885 16.3 45.1173C13.8571 44.1349 10.7493 44.6218 7.9804 46.4213C5.59839 47.9644 3.81616 49.8292 1.93402 52.1286C3.69761 55.2732 6.58615 57.6337 10.019 58.7357C13.1965 59.7398 16.6999 59.2572 20.4512 57.2969C20.6024 57.2179 20.7758 57.1921 20.9435 57.2235C21.1111 57.255 21.2634 57.3419 21.3757 57.4703C21.488 57.5987 21.554 57.7611 21.5629 57.9315C21.5718 58.1018 21.5232 58.2702 21.4248 58.4097C19.7831 60.7493 18.9373 63.5548 19.0124 66.412C20.9933 66.7068 23.0148 66.5632 24.9342 65.9915C26.8536 65.4198 28.6242 64.4339 30.121 63.1033C31.6178 61.7727 32.8043 60.1299 33.597 58.2907C34.3896 56.4515 34.7691 54.4608 34.7085 52.4589C34.7022 52.2572 34.7762 52.0612 34.9144 51.9141C35.0525 51.7669 35.2434 51.6807 35.4452 51.6744C35.6469 51.668 35.843 51.7421 35.9901 51.8803C36.1373 52.0184 36.2235 52.2094 36.2299 52.4111C36.2881 54.4478 35.9366 56.4755 35.1962 58.3738C34.4559 60.2721 33.3417 62.0023 31.9199 63.4618C30.4981 64.9213 28.7976 66.0803 26.9194 66.8701C25.0411 67.6599 23.0234 68.0643 20.9858 68.0594L20.951 68.0681Z" fill="#AF6900" stroke="#AF6900" stroke-width="0.5"/>
<path d="M67.7481 64.0953C67.676 64.0958 67.6042 64.0856 67.5352 64.0649C63.0667 62.7608 57.4203 60.7135 53.3822 56.4407C50.5034 53.4223 48.7203 49.5255 48.3181 45.3739C45.0233 45.7396 41.7063 44.913 38.9683 43.044C36.0647 41.1141 33.6349 38.0975 31.931 34.3506C30.2966 30.7297 29.5142 26.9176 28.9622 23.6662C28.9299 23.4731 28.9733 23.275 29.0834 23.113C29.1935 22.9511 29.3618 22.8379 29.5533 22.7969C32.796 22.0884 36.6559 22.4839 40.0246 23.7836C38.2512 20.4584 37.886 16.0682 39.19 12.0083C40.5418 7.80937 43.5107 3.90598 48.0182 0.411199C48.1349 0.320107 48.2755 0.265006 48.423 0.252653C48.5705 0.2403 48.7184 0.27127 48.8485 0.341689C55.0557 3.73649 59.6284 10.3392 60.8629 17.4808C66.8744 10.187 76.4894 5.94894 86.413 6.3271C86.6094 6.33497 86.7952 6.4186 86.9313 6.56041C87.0675 6.70222 87.1434 6.8912 87.1432 7.08778C87.1432 13.6687 86.3652 17.5678 84.244 21.9928C83.2399 24.0792 79.919 29.4431 75.6679 32.2467C78.0112 32.4633 80.2903 33.132 82.3792 34.2158C86.4347 36.2935 89.9773 39.8665 92.9114 44.8479C92.9955 44.9928 93.0299 45.1613 93.0095 45.3276C92.9891 45.4939 92.915 45.6491 92.7984 45.7694C89.7078 48.8991 85.9001 52.3286 81.0622 54.0282C76.6328 55.5713 72.0471 55.4062 68.4002 53.6414C69.2872 56.8892 69.3156 60.3116 68.4827 63.5737C68.4564 63.6707 68.411 63.7614 68.349 63.8406C68.287 63.9197 68.2098 63.9856 68.1219 64.0344C68.0044 64.0857 67.8759 64.1066 67.7481 64.0953ZM49.0137 43.6308C49.2154 43.6308 49.4089 43.711 49.5516 43.8536C49.6943 43.9963 49.7743 44.1898 49.7743 44.3915C49.7765 44.4117 49.7765 44.4322 49.7743 44.4524C49.9791 48.5475 51.65 52.4323 54.4819 55.3974C58.0462 59.1704 63.045 61.1178 67.1918 62.3783C67.8816 58.9798 67.5906 55.4551 66.3528 52.2156C66.2942 52.0634 66.2861 51.8964 66.3296 51.7392C66.3732 51.582 66.4661 51.443 66.5947 51.3427C66.7233 51.2424 66.8808 51.186 67.0438 51.182C67.2069 51.1779 67.3669 51.2264 67.5004 51.3202C70.9039 53.7022 75.9069 54.176 80.5406 52.5547C84.8873 51.0464 88.2647 48.1123 91.277 45.0957C88.695 40.8967 82.2053 32.5206 72.1165 33.7942C71.9231 33.8189 71.7276 33.7684 71.5703 33.6531C71.4131 33.5378 71.3061 33.3664 71.2715 33.1745C71.2369 32.9826 71.2773 32.7848 71.3844 32.6218C71.4915 32.4588 71.6572 32.3432 71.8471 32.2989C77.1979 31.0383 81.8881 23.3055 82.8487 21.306C84.8091 17.2288 85.5262 13.7513 85.5958 7.80065H85.1611C75.52 7.80065 66.3267 12.3343 60.9498 19.8107C60.8583 19.9353 60.7316 20.0297 60.5859 20.0816C60.4402 20.1335 60.2824 20.1406 60.1327 20.1019C59.9832 20.061 59.8498 19.9753 59.7504 19.8564C59.651 19.7376 59.5902 19.5912 59.5763 19.4369C58.9242 12.2517 54.6122 5.42301 48.5355 1.8978C44.4974 5.11874 41.8372 8.66568 40.6244 12.4473C39.3682 16.3594 39.5943 21.8145 42.9369 25.2311C43.0641 25.3636 43.1391 25.5378 43.1479 25.7213C43.1567 25.9048 43.0987 26.0853 42.9848 26.2295C42.8709 26.3736 42.7086 26.4716 42.528 26.5054C42.3475 26.5392 42.1608 26.5066 42.0024 26.4134C38.5596 24.3855 34.5333 23.5784 30.5748 24.1227C31.1008 27.1089 31.8571 30.4993 33.3002 33.6855C34.8868 37.1977 37.1297 39.9882 39.7943 41.7574C42.3337 43.5031 45.4377 44.2279 48.4877 43.7873C48.638 43.6726 48.8251 43.617 49.0137 43.6308Z" fill="#AF6900" stroke="#AF6900" stroke-width="0.5"/>
</svg>
